{"glyphs":{"0":{"ha":860,"x_min":0,"x_max":0,"o":"m 625 481 b 429 8 625 96 556 8 b 232 481 307 8 232 96 b 429 969 232 867 304 969 b 625 481 549 969 625 867 z m 810 481 b 429 990 810 739 735 990 b 47 481 122 990 47 739 b 429 -12 47 224 122 -12 b 810 481 735 -12 810 224 z "},"1":{"ha":563,"x_min":0,"x_max":0,"o":"m 478 21 b 368 129 429 21 368 22 l 368 990 l 322 990 l 81 803 l 93 783 b 221 760 118 804 221 874 l 221 129 b 99 21 221 26 156 21 l 99 0 l 478 0 l 478 21 z "},"2":{"ha":676,"x_min":0,"x_max":0,"o":"m 607 229 b 479 150 576 174 526 150 l 185 150 b 390 442 185 150 322 353 b 558 758 500 583 558 667 b 321 990 558 885 460 990 b 57 729 321 990 81 993 l 78 724 b 365 461 158 975 604 842 l 54 0 l 564 0 l 626 229 z "},"3":{"ha":714,"x_min":0,"x_max":0,"o":"m 78 61 b 319 -12 132 17 210 -12 b 643 307 457 -12 654 61 b 431 546 639 400 564 496 b 321 990 681 733 531 990 b 69 765 308 990 92 990 l 90 761 b 360 842 128 879 283 906 b 231 507 458 758 453 561 l 231 485 b 496 253 442 463 490 319 b 319 8 508 117 461 8 b 189 53 208 8 176 47 b 229 103 208 61 222 78 b 168 217 244 151 217 203 b 54 156 119 232 68 204 b 78 61 44 121 54 82 z "},"4":{"ha":747,"x_min":0,"x_max":0,"o":"m 386 363 l 169 363 b 151 428 138 363 106 364 l 386 775 z m 694 278 l 694 363 l 556 363 l 556 978 l 496 988 l 39 299 l 39 278 l 386 278 l 386 178 b 275 21 386 26 333 21 l 275 0 l 667 0 l 667 21 b 556 185 608 21 556 24 l 556 278 z "},"5":{"ha":743,"x_min":0,"x_max":0,"o":"m 671 322 b 122 599 663 483 513 671 l 163 822 l 597 822 l 646 978 l 165 978 l 72 451 b 544 275 400 508 518 360 b 318 8 583 142 500 8 b 207 53 215 8 189 44 b 249 104 225 61 243 79 b 186 219 263 154 235 206 b 69 156 136 233 83 204 b 96 60 61 122 74 82 b 318 -12 121 39 185 -12 b 671 322 503 -12 682 92 z "},"6":{"ha":782,"x_min":0,"x_max":0,"o":"m 557 276 b 399 8 557 61 503 8 b 242 414 285 8 242 129 b 411 551 242 504 335 551 b 557 276 490 551 557 472 z m 728 303 b 468 604 728 450 665 604 b 242 469 382 604 282 574 b 467 969 243 854 346 972 b 544 943 536 967 556 944 b 490 908 522 942 504 928 b 511 782 461 868 471 810 b 639 804 553 753 610 764 b 644 900 658 833 660 874 b 457 990 631 924 583 990 b 58 442 238 990 58 765 b 399 -12 58 165 164 -12 b 728 303 592 -12 728 88 z "},"7":{"ha":768,"x_min":0,"x_max":0,"o":"m 93 978 l 63 747 l 83 747 b 215 828 111 803 158 828 l 610 828 b 261 0 333 469 269 244 l 432 0 b 631 828 432 171 457 517 l 719 978 z "},"8":{"ha":767,"x_min":0,"x_max":0,"o":"m 547 768 b 453 581 549 669 506 603 b 231 814 299 642 231 710 b 376 969 231 915 299 969 b 547 768 457 969 546 929 z m 394 -12 b 721 272 579 -12 721 65 b 478 567 721 396 611 503 b 654 781 589 593 654 699 b 376 990 654 913 543 990 b 92 736 222 990 92 907 b 275 471 92 639 144 551 b 50 217 169 442 50 336 b 394 -12 50 49 189 -12 z m 353 428 b 569 192 468 368 568 301 b 394 8 571 58 478 8 b 181 222 267 8 181 86 b 303 456 181 371 261 436 b 353 428 324 443 329 440 z "},"9":{"ha":771,"x_min":0,"x_max":0,"o":"m 222 704 b 381 969 222 913 276 969 b 536 569 494 969 536 846 b 368 428 536 479 444 428 b 222 704 289 428 222 508 z m 51 678 b 311 375 51 531 114 375 b 536 511 397 375 490 403 b 315 8 535 113 492 4 b 225 39 246 10 215 38 b 281 74 247 40 267 54 b 260 200 310 114 300 172 b 132 178 218 229 161 219 b 126 82 113 149 111 108 b 326 -12 140 58 181 -12 b 718 544 590 -12 718 197 b 381 990 718 821 615 990 b 51 678 188 990 51 889 z "}," ":{"ha":357,"x_min":0,"x_max":0,"o":""},"!":{"ha":442,"x_min":0,"x_max":0,"o":"m 258 286 l 299 1035 l 142 1035 l 179 286 z m 311 82 b 218 -12 311 29 269 -12 b 125 82 167 -12 125 29 b 218 175 125 133 167 175 b 311 82 269 175 311 133 z "},"\"":{"ha":721,"x_min":0,"x_max":0,"o":"m 456 525 l 531 525 l 572 978 l 413 978 z m 182 525 l 258 525 l 297 978 l 140 978 z "},"#":{"ha":985,"x_min":0,"x_max":0,"o":"m 622 654 l 569 426 l 364 426 l 417 654 z m 919 654 l 919 756 l 751 756 l 817 1036 l 710 1036 l 644 756 l 440 756 l 504 1036 l 397 1036 l 332 756 l 150 756 l 150 654 l 310 654 l 257 426 l 61 426 l 61 324 l 233 324 l 158 0 l 265 0 l 340 324 l 546 324 l 471 0 l 578 0 l 653 324 l 832 324 l 832 426 l 676 426 l 729 654 z "},"$":{"ha":789,"x_min":0,"x_max":0,"o":"m 400 8 l 400 390 l 469 346 b 400 8 615 242 626 13 z m 368 628 l 329 654 b 368 969 136 781 219 968 z m 551 507 l 400 607 l 400 968 b 694 690 601 956 675 789 l 706 690 l 706 924 b 400 990 706 924 600 985 l 400 1160 l 368 1160 l 368 990 b 94 883 163 989 94 883 b 249 488 -17 725 83 593 l 368 410 l 368 8 b 75 336 167 38 96 217 l 64 336 l 64 69 b 368 -12 64 69 157 -3 l 368 -182 l 400 -182 l 400 -12 b 701 101 594 -11 658 50 b 551 507 790 233 736 386 z "},"%":{"ha":1378,"x_min":0,"x_max":0,"o":"m 1007 56 b 922 279 946 56 922 88 b 1007 513 922 471 944 513 b 1090 279 1067 513 1090 471 b 1007 56 1090 88 1069 56 z m 1007 533 b 818 279 854 533 818 407 b 1007 35 818 151 854 35 b 1196 279 1158 35 1196 151 b 1007 533 1196 407 1158 533 z m 301 690 b 386 922 301 882 324 922 b 469 690 446 922 469 882 b 386 467 469 499 449 467 b 301 690 325 467 301 499 z m 575 690 b 386 943 575 817 538 943 b 196 690 233 943 196 817 b 386 446 196 561 233 446 b 575 690 538 446 575 561 z m 1054 978 l 972 978 l 339 0 l 421 0 z "},"&":{"ha":1125,"x_min":0,"x_max":0,"o":"m 440 996 b 589 956 490 1014 549 996 b 500 613 650 879 682 732 l 400 760 b 440 996 333 858 368 971 z m 288 146 b 311 474 179 281 233 418 l 381 518 l 607 192 b 288 146 539 46 363 53 z m 1032 161 b 924 94 1021 110 972 94 b 808 158 924 94 851 94 l 699 317 b 808 400 733 407 808 429 b 835 346 810 378 818 361 b 949 356 869 317 921 322 b 940 468 981 390 974 442 b 847 485 915 489 876 492 b 688 333 811 476 740 450 l 513 593 b 608 971 724 743 663 907 b 407 1028 565 1019 500 1044 b 294 647 251 1001 164 828 l 368 536 l 299 494 b 146 88 189 431 7 278 b 622 171 285 -106 569 13 l 700 57 b 893 -12 756 -25 893 -12 b 1053 161 969 -4 1053 49 z "},"'":{"ha":358,"x_min":0,"x_max":0,"o":"m 146 522 l 222 522 l 263 978 l 104 978 z "},"(":{"ha":451,"x_min":0,"x_max":0,"o":"m 435 1035 b 110 353 186 861 110 563 b 432 -286 110 142 185 -147 l 450 -268 b 257 349 254 -92 257 238 b 453 1018 257 458 253 783 z "},")":{"ha":457,"x_min":0,"x_max":0,"o":"m -3 1018 b 193 349 197 783 193 458 b 0 -268 193 238 196 -92 l 18 -286 b 340 353 265 -147 340 142 b 15 1035 340 563 264 861 z "},"*":{"ha":765,"x_min":0,"x_max":0,"o":"m 671 721 l 632 842 l 404 725 l 444 978 l 317 978 l 357 725 l 129 842 l 89 721 l 343 681 l 161 501 l 264 425 l 381 654 l 496 425 l 600 501 l 418 681 z "},"+":{"ha":993,"x_min":0,"x_max":0,"o":"m 913 486 l 551 486 l 551 860 l 439 860 l 439 486 l 78 486 l 78 375 l 439 375 l 439 0 l 551 0 l 551 375 l 913 375 z "},",":{"ha":353,"x_min":0,"x_max":0,"o":"m 124 -179 b 232 -76 186 -146 214 -106 b 251 157 274 -12 311 99 b 113 157 214 196 151 196 b 114 19 75 118 76 57 b 181 -10 133 0 157 -7 b 111 -164 203 -12 197 -100 l 124 -179 z "},"-":{"ha":617,"x_min":0,"x_max":0,"o":"m 526 299 l 526 410 l 89 410 l 89 299 z "},".":{"ha":350,"x_min":0,"x_max":0,"o":"m 176 -7 b 276 93 231 -7 276 38 b 176 193 276 149 231 193 b 76 93 121 193 76 149 b 176 -7 76 38 121 -7 z "},"/":{"ha":583,"x_min":0,"x_max":0,"o":"m 560 1007 l 447 1007 l 19 -29 l 132 -29 z "},":":{"ha":350,"x_min":0,"x_max":0,"o":"m 176 422 b 278 524 231 422 278 468 b 176 625 278 579 231 625 b 75 524 119 625 75 579 b 176 422 75 468 119 422 z m 176 22 b 278 122 231 22 278 67 b 176 225 278 179 231 225 b 75 122 119 225 75 179 b 176 22 75 67 119 22 z "},";":{"ha":349,"x_min":0,"x_max":0,"o":"m 175 421 b 276 524 232 421 276 467 b 175 625 276 579 232 625 b 75 524 119 625 75 579 b 175 421 75 467 119 421 z m 117 -144 l 104 -129 b 174 25 190 -65 196 22 b 107 54 150 28 126 35 b 106 192 69 92 68 153 b 244 192 144 231 207 231 b 225 -42 304 133 267 22 b 117 -144 207 -71 179 -111 z "},"<":{"ha":833,"x_min":0,"x_max":0,"o":"m 236 369 l 768 646 l 768 760 l 64 399 l 64 339 l 768 -22 l 768 90 z "},"=":{"ha":851,"x_min":0,"x_max":0,"o":"m 788 478 l 788 576 l 78 576 l 78 478 z m 788 165 l 788 264 l 78 264 l 78 165 z "},">":{"ha":833,"x_min":0,"x_max":0,"o":"m 65 90 l 65 -22 l 769 339 l 769 399 l 65 760 l 65 646 l 597 369 z "},"?":{"ha":811,"x_min":0,"x_max":0,"o":"m 483 96 b 379 199 483 153 438 199 b 278 96 322 199 278 153 b 379 -7 278 39 322 -7 b 483 96 438 -7 483 39 z m 486 479 b 692 790 565 506 701 589 b 224 983 683 989 443 1081 b 114 863 157 954 122 894 b 122 778 107 836 104 804 b 240 754 150 739 203 728 b 260 871 276 781 286 833 b 208 904 246 890 229 901 b 238 967 189 907 188 946 b 517 785 354 1013 501 971 b 422 522 529 639 486 576 b 350 303 335 449 342 357 l 382 308 b 486 479 375 392 414 456 z "},"@":{"ha":1222,"x_min":0,"x_max":0,"o":"m 715 113 b 618 63 715 113 682 57 b 519 286 556 68 489 128 b 703 519 543 414 615 519 b 767 351 790 519 771 374 b 715 113 753 282 722 147 z m 729 854 b 53 253 400 867 68 639 b 575 -285 35 -182 374 -285 b 901 -181 804 -285 901 -181 l 889 -162 b 603 -240 881 -171 764 -253 b 201 283 115 -203 201 283 b 743 775 235 540 419 799 b 1085 344 1049 751 1093 503 b 876 40 1072 119 935 40 b 838 110 831 40 831 82 b 919 525 847 160 919 525 l 803 526 b 796 490 803 526 799 507 b 679 546 794 492 767 546 b 378 229 471 547 390 344 b 526 -11 365 122 406 -11 b 710 75 635 -11 696 56 b 796 -11 703 31 732 -11 b 1149 339 897 -11 1118 29 b 729 854 1182 665 968 844 z "},"A":{"ha":969,"x_min":0,"x_max":0,"o":"m 239 306 l 399 739 l 571 306 z m 949 21 b 833 128 911 24 879 17 b 485 978 833 128 740 365 l 467 978 l 229 344 b 22 21 101 21 67 22 l 22 0 l 349 0 l 349 21 b 235 285 142 13 215 229 l 579 285 l 624 174 b 592 21 640 135 683 21 l 592 0 l 949 0 z "},"B":{"ha":854,"x_min":0,"x_max":0,"o":"m 363 957 b 553 743 438 957 553 949 b 374 506 553 535 454 506 l 304 506 l 304 957 z m 789 249 b 483 501 789 485 574 501 b 724 740 511 501 724 529 b 358 978 724 976 551 978 l 51 978 l 51 967 b 132 800 113 967 132 886 l 132 178 b 51 13 132 83 111 13 l 51 0 l 358 0 b 789 249 599 0 789 7 z m 610 256 b 363 21 610 18 489 21 l 304 21 l 304 485 l 374 485 b 610 256 472 485 610 478 z "},"C":{"ha":946,"x_min":0,"x_max":0,"o":"m 847 290 b 539 8 821 108 678 8 b 271 489 393 8 271 85 b 539 969 271 889 389 969 b 847 689 674 969 789 897 l 868 689 l 886 906 b 539 990 799 976 682 990 b 57 489 246 990 57 783 b 539 -12 57 196 246 -12 b 886 74 688 -12 783 6 l 868 290 z "},"D":{"ha":1021,"x_min":0,"x_max":0,"o":"m 751 486 b 390 21 751 39 532 21 l 329 21 l 329 957 l 390 957 b 751 486 535 957 751 926 z m 957 486 b 390 978 957 893 667 978 l 57 978 l 57 957 b 156 800 118 957 156 886 l 156 178 b 57 21 156 83 117 21 l 57 0 l 390 0 b 957 486 667 0 957 72 z "},"E":{"ha":868,"x_min":0,"x_max":0,"o":"m 760 296 b 347 21 715 18 408 21 l 290 21 l 290 483 l 360 483 b 569 340 378 483 558 483 l 590 340 l 590 646 l 569 646 b 360 504 558 504 379 504 l 290 504 l 290 957 l 353 957 b 742 721 410 957 718 956 l 763 721 l 763 978 l 40 978 l 40 957 b 118 808 101 957 118 894 l 118 176 b 40 21 118 82 99 21 l 40 0 l 781 0 l 781 296 z "},"F":{"ha":796,"x_min":0,"x_max":0,"o":"m 38 978 l 38 957 b 115 808 99 957 115 894 l 115 176 b 38 21 115 82 97 21 l 38 0 l 400 0 l 400 21 b 288 179 339 21 288 32 l 288 482 l 356 482 b 575 340 375 482 557 486 l 596 340 l 596 646 l 575 646 b 356 506 557 501 375 506 l 288 506 l 288 957 l 349 957 b 750 721 403 957 714 967 l 771 721 l 771 978 z "},"G":{"ha":1014,"x_min":0,"x_max":0,"o":"m 619 389 l 619 368 b 735 164 706 368 735 363 b 528 8 735 38 690 8 b 271 489 372 8 271 107 b 528 969 271 871 369 969 b 831 683 692 969 800 907 l 869 683 l 879 914 b 528 990 793 971 683 990 b 54 489 228 990 54 765 b 528 -12 54 213 228 -12 b 885 46 676 -12 799 13 b 979 368 885 349 899 368 l 979 389 z "},"H":{"ha":881,"x_min":0,"x_max":0,"o":"m 788 782 b 853 957 788 903 788 944 l 853 978 l 586 978 l 586 957 b 622 782 625 944 622 903 l 622 482 l 264 482 l 264 782 b 300 957 264 903 261 944 l 300 978 l 32 978 l 32 957 b 99 782 99 944 99 899 l 99 189 b 32 21 99 65 106 40 l 32 0 l 300 0 l 300 21 b 264 189 261 35 264 61 l 264 456 l 622 456 l 622 189 b 586 21 622 69 624 35 l 586 0 l 853 0 l 853 21 b 788 189 781 40 788 75 l 788 782 z "},"I":{"ha":504,"x_min":0,"x_max":0,"o":"m 65 978 l 65 957 b 174 840 126 957 174 926 l 174 158 b 65 21 174 64 125 21 l 65 0 l 453 0 l 453 21 b 344 158 394 21 344 64 l 344 840 b 453 957 344 926 393 957 l 453 978 z "},"J":{"ha":581,"x_min":0,"x_max":0,"o":"m 125 978 l 125 957 b 233 660 232 957 233 921 l 233 244 b 1 -211 233 -57 121 -168 l 7 -232 b 408 253 233 -199 408 -75 l 408 829 b 524 957 408 918 461 957 l 524 978 z "},"K":{"ha":1069,"x_min":0,"x_max":0,"o":"m 1051 21 b 863 104 1024 21 928 18 b 526 554 863 104 771 228 b 1011 957 826 939 914 957 l 1011 978 l 590 978 l 590 957 b 578 676 818 953 618 722 l 394 454 b 542 251 394 454 463 365 b 868 0 689 42 721 0 l 1051 0 z m 53 978 l 53 957 b 146 840 113 957 146 926 l 146 158 b 53 21 146 64 111 21 l 53 0 l 417 0 l 417 21 b 318 158 357 21 318 64 l 318 840 b 432 957 318 942 371 957 l 432 978 z "},"L":{"ha":889,"x_min":0,"x_max":0,"o":"m 783 301 b 371 21 747 21 446 21 l 321 21 l 321 833 b 436 957 321 933 376 957 l 436 978 l 51 978 l 51 957 b 150 836 111 957 150 921 l 150 172 b 63 21 150 78 122 21 l 63 0 l 803 0 l 803 301 z "},"M":{"ha":1318,"x_min":0,"x_max":0,"o":"m 1174 165 l 1174 835 b 1281 957 1174 924 1221 957 l 1281 978 l 1003 978 l 726 232 l 379 978 l 65 978 l 65 957 b 221 863 100 954 169 954 l 221 349 b 19 21 221 269 208 21 l 19 0 l 426 0 l 426 21 b 242 349 253 21 242 268 l 242 829 l 631 -12 l 651 -12 l 1003 918 l 1003 165 b 903 21 1003 61 961 21 l 903 0 l 1290 0 l 1290 21 b 1174 165 1231 21 1174 61 z "},"N":{"ha":1142,"x_min":0,"x_max":0,"o":"m 706 978 l 706 957 b 892 629 892 958 892 693 l 892 246 l 311 978 l 13 978 l 13 957 b 178 856 49 954 89 967 l 233 785 l 233 351 b 29 21 233 289 233 21 l 29 0 l 440 0 l 440 21 b 254 351 253 21 254 289 l 254 763 l 853 0 l 913 0 l 913 629 b 1114 957 913 693 908 958 l 1114 978 z "},"O":{"ha":1049,"x_min":0,"x_max":0,"o":"m 786 482 b 522 8 786 100 686 8 b 256 482 357 8 256 100 b 522 969 256 863 357 969 b 786 482 686 969 786 863 z m 988 482 b 522 990 988 757 828 990 b 57 482 217 990 57 757 b 522 -12 57 206 217 -12 b 988 482 828 -12 988 206 z "},"P":{"ha":860,"x_min":0,"x_max":0,"o":"m 303 439 l 303 957 l 340 957 b 617 697 490 957 617 953 b 340 439 617 446 493 439 z m 303 418 l 340 418 b 807 697 617 418 807 458 b 340 978 807 936 617 978 l 39 978 l 39 957 b 133 813 104 957 133 903 l 133 189 b 42 21 133 75 106 21 l 42 0 l 454 0 l 454 21 b 303 190 381 21 303 28 z "},"Q":{"ha":1043,"x_min":0,"x_max":0,"o":"m 786 482 b 522 8 786 100 686 8 b 256 482 357 8 256 100 b 522 969 256 863 357 969 b 786 482 686 969 786 863 z m 988 482 b 522 990 988 757 828 990 b 57 482 217 990 57 757 b 522 -12 57 206 217 -12 b 988 482 828 -12 988 206 z m 592 -92 b 129 -181 592 -92 356 10 l 146 -197 b 342 -167 176 -175 243 -125 l 456 -215 b 903 -256 681 -311 796 -343 l 1029 -149 l 1014 -133 b 815 -169 983 -156 922 -206 z "},"R":{"ha":954,"x_min":0,"x_max":0,"o":"m 599 713 b 338 468 599 468 485 468 l 294 468 l 294 957 l 338 957 b 599 713 479 957 599 960 z m 944 21 b 788 150 908 24 815 44 b 524 460 718 428 615 463 b 789 713 681 474 789 533 b 338 978 789 944 614 978 l 33 978 l 33 957 b 126 842 94 957 126 928 l 126 165 b 33 21 126 60 93 21 l 33 0 l 392 0 l 392 21 b 294 157 333 21 294 61 l 294 447 l 360 447 b 554 303 378 447 513 447 b 828 0 643 1 614 1 l 944 0 z "},"S":{"ha":814,"x_min":0,"x_max":0,"o":"m 701 101 b 551 508 790 235 736 386 l 329 654 b 369 969 135 781 219 969 b 685 690 596 969 665 796 l 706 690 l 706 924 b 369 990 706 924 589 990 b 94 883 163 990 94 883 b 249 488 -17 725 83 593 l 469 346 b 419 8 636 226 599 8 b 85 336 178 8 107 210 l 64 336 l 64 69 b 419 -12 64 69 172 -12 b 701 101 639 -12 701 101 z "},"T":{"ha":939,"x_min":0,"x_max":0,"o":"m 26 978 l 26 715 l 47 715 b 328 957 56 953 307 957 l 382 957 l 382 151 b 272 21 382 58 331 21 l 272 0 l 661 0 l 661 21 b 551 151 603 21 551 58 l 551 957 l 606 957 b 888 715 615 957 879 953 l 908 715 l 908 978 z "},"U":{"ha":1022,"x_min":0,"x_max":0,"o":"m 461 -12 b 801 331 608 -12 803 57 l 801 725 b 994 957 801 792 799 958 l 994 978 l 604 978 l 604 957 b 781 725 781 958 781 792 l 781 331 b 542 60 781 154 665 60 b 297 326 400 60 297 158 l 297 835 b 418 957 297 939 358 957 l 418 978 l 24 978 l 24 957 b 128 836 85 957 128 925 l 128 338 b 461 -12 128 111 278 -12 z "},"V":{"ha":1057,"x_min":0,"x_max":0,"o":"m 660 978 l 660 957 b 749 631 874 957 769 694 l 589 219 l 360 815 b 432 957 358 819 317 957 l 432 978 l 24 978 l 24 957 b 156 850 65 957 113 956 b 501 0 156 850 246 614 l 524 0 l 768 625 b 1028 957 901 957 950 957 l 1028 978 z "},"W":{"ha":1510,"x_min":0,"x_max":0,"o":"m 1108 978 l 1108 957 b 1200 631 1324 957 1219 697 l 1056 233 l 843 817 b 917 957 842 822 792 957 l 917 978 l 508 978 l 508 957 b 638 847 549 957 597 953 l 714 640 l 574 239 l 354 817 b 426 957 351 822 304 957 l 426 978 l 18 978 l 18 957 b 149 847 60 957 107 953 l 488 0 l 508 0 l 725 610 l 965 0 l 986 0 l 1221 625 b 1490 957 1342 924 1407 957 l 1490 978 z "},"X":{"ha":1092,"x_min":0,"x_max":0,"o":"m 899 139 b 607 565 899 139 708 422 l 683 672 b 1049 957 889 960 988 957 l 1049 978 l 628 978 l 628 957 b 667 690 840 957 704 758 l 593 586 l 450 797 b 468 957 376 906 410 957 l 468 978 l 32 978 l 32 957 b 204 838 74 957 122 951 b 492 428 204 838 335 657 l 413 317 b 65 21 196 13 118 21 l 65 0 l 453 0 l 453 21 b 431 299 244 21 388 218 l 507 407 l 660 176 b 657 21 672 158 751 39 l 657 0 l 1065 0 l 1065 21 b 899 139 1019 22 975 31 z "},"Y":{"ha":1017,"x_min":0,"x_max":0,"o":"m 610 978 l 610 957 b 681 674 804 957 704 722 l 581 468 l 381 801 b 413 958 286 961 378 958 l 413 978 l 13 978 l 13 958 b 160 850 53 957 99 956 b 426 392 160 850 222 753 l 426 163 b 315 22 426 58 374 22 l 315 0 l 703 0 l 703 22 b 592 163 644 22 592 58 l 592 446 l 690 651 b 997 957 844 957 949 957 l 997 978 z "},"Z":{"ha":807,"x_min":0,"x_max":0,"o":"m 265 21 l 771 978 l 92 978 l 67 697 l 93 697 b 506 957 138 867 285 957 l 572 957 l 33 0 l 721 0 l 756 324 l 732 324 b 315 21 699 185 567 21 z "},"[":{"ha":446,"x_min":0,"x_max":0,"o":"m 157 1021 l 157 -203 l 425 -203 l 425 -182 b 278 -76 353 -182 278 -178 l 278 882 b 425 1000 278 999 350 1000 l 425 1021 z "},"\\":{"ha":588,"x_min":0,"x_max":0,"o":"m 451 -26 l 563 -26 l 131 1019 l 19 1019 z "},"]":{"ha":444,"x_min":0,"x_max":0,"o":"m 15 1021 l 15 1000 b 163 882 90 1000 163 999 l 163 -76 b 15 -182 163 -178 88 -182 l 15 -203 l 283 -203 l 283 1021 z "},"^":{"ha":790,"x_min":0,"x_max":0,"o":"m 407 978 l 375 978 l 124 522 l 176 522 l 390 774 l 608 522 l 660 522 z "},"_":{"ha":778,"x_min":0,"x_max":0,"o":"m 0 -101 l 0 -175 l 778 -175 l 778 -101 z "},"`":{"ha":468,"x_min":0,"x_max":0,"o":"m 139 1000 l 6 960 l 339 774 l 379 774 z "},"a":{"ha":706,"x_min":0,"x_max":0,"o":"m 414 335 b 414 138 414 335 414 140 b 308 61 401 104 368 61 b 208 161 221 61 208 142 b 414 335 208 239 265 301 z m 668 92 b 629 63 660 63 629 63 b 564 154 564 63 564 154 l 564 376 b 353 654 564 540 519 654 b 221 626 353 654 282 658 b 113 525 146 586 125 547 b 118 449 100 503 101 472 b 218 432 140 417 186 410 b 235 532 250 456 258 500 b 188 560 222 549 207 557 b 235 611 179 561 186 586 b 414 442 339 661 414 585 l 414 358 b 57 129 174 297 57 275 b 217 -12 57 -12 217 -12 b 415 103 314 -12 396 39 b 543 -12 428 -14 543 -12 b 689 83 624 -12 679 40 z "},"b":{"ha":794,"x_min":0,"x_max":0,"o":"m 568 299 b 404 8 568 82 501 8 b 236 231 318 8 236 71 l 236 424 b 389 603 236 526 292 603 b 568 299 507 603 568 518 z m 740 314 b 447 654 740 519 618 654 b 236 540 378 654 281 619 l 236 1031 l 19 986 l 19 965 b 90 882 76 950 90 929 l 90 7 b 208 57 90 -15 164 17 b 407 -12 254 13 325 -12 b 740 314 597 -12 740 94 z "},"c":{"ha":682,"x_min":0,"x_max":0,"o":"m 617 178 b 404 88 588 128 490 75 b 215 342 307 103 215 174 b 411 633 215 590 358 633 b 507 599 485 633 519 603 b 467 556 489 592 474 576 b 510 456 451 517 469 471 b 611 501 550 440 596 463 b 597 582 624 528 614 561 b 411 654 579 603 529 654 b 63 322 186 654 63 486 b 367 -12 63 139 199 -12 b 633 168 539 -12 615 99 z "},"d":{"ha":786,"x_min":0,"x_max":0,"o":"m 550 197 b 393 32 550 100 486 32 b 218 346 276 32 218 124 b 383 633 218 563 286 633 b 550 417 465 633 550 571 z m 767 38 b 696 122 710 42 696 54 l 696 1031 l 479 986 l 479 965 b 550 885 536 950 550 933 l 550 608 b 381 654 506 636 447 654 b 47 329 192 654 47 550 b 342 -12 47 124 169 -12 b 550 94 408 -12 506 18 l 550 14 b 589 -11 550 14 550 -17 l 767 17 z "},"e":{"ha":704,"x_min":0,"x_max":0,"o":"m 206 354 b 358 633 206 508 278 633 b 503 354 429 633 503 543 z m 606 176 b 390 83 575 110 471 71 b 206 333 290 99 214 172 l 647 333 b 364 654 647 551 546 654 b 50 317 182 654 50 517 b 351 -12 50 143 175 -12 b 625 167 526 -12 607 99 z "},"f":{"ha":438,"x_min":0,"x_max":0,"o":"m 494 888 b 485 972 506 914 500 950 b 349 1033 471 993 418 1033 b 107 642 185 1033 107 953 l 17 642 l 18 621 l 107 621 l 107 138 b 53 21 107 68 106 33 l 53 0 l 317 0 l 317 21 b 254 138 267 32 254 63 l 254 621 l 403 621 l 407 642 l 254 642 b 350 1014 254 939 290 1014 b 400 986 396 1014 417 989 b 357 950 382 982 367 969 b 394 850 340 911 356 868 b 494 888 432 833 476 850 z "},"g":{"ha":774,"x_min":0,"x_max":0,"o":"m 479 429 b 356 239 479 274 419 239 b 235 429 294 239 235 274 b 356 618 235 585 286 618 b 479 429 415 618 479 585 z m 744 532 b 753 632 774 557 778 601 b 682 656 735 651 707 660 b 554 576 650 651 592 632 b 356 639 510 615 443 639 b 93 429 192 639 93 542 b 204 250 93 356 133 281 b 76 83 72 206 76 83 b 143 -28 76 28 104 -10 b 33 -276 57 -72 -17 -179 b 517 -296 89 -386 325 -403 b 668 -101 663 -214 668 -101 b 433 97 693 94 529 97 l 253 97 b 225 240 97 97 175 226 b 356 218 260 225 301 218 b 621 429 522 218 621 317 b 569 563 621 479 603 528 b 631 590 593 594 632 601 b 644 539 626 572 632 554 b 744 532 669 510 714 506 z m 136 -235 b 165 -40 138 -236 35 -119 b 285 -58 217 -61 269 -58 l 476 -58 b 594 -131 586 -58 594 -131 b 506 -278 594 -131 606 -217 b 136 -235 379 -354 207 -319 z "},"h":{"ha":726,"x_min":0,"x_max":0,"o":"m 703 21 b 646 150 654 33 646 74 l 646 435 b 463 654 646 601 575 654 b 239 500 374 654 264 576 l 239 1031 l 22 981 l 22 960 b 92 881 79 944 92 929 l 92 150 b 36 22 92 79 89 38 l 36 0 l 296 0 l 296 22 b 239 150 246 35 239 74 l 239 469 b 368 567 265 521 315 567 b 499 429 457 567 499 519 l 499 150 b 443 21 499 79 496 36 l 443 0 l 703 0 l 703 21 z "},"i":{"ha":365,"x_min":0,"x_max":0,"o":"m 168 768 b 253 850 214 768 253 804 b 168 933 253 896 214 933 b 86 850 122 933 86 896 b 168 768 86 804 122 768 z m 313 21 b 256 149 263 35 256 72 l 256 654 l 39 607 l 39 586 b 110 496 96 563 110 543 l 110 149 b 54 21 110 78 107 38 l 54 0 l 313 0 z "},"j":{"ha":363,"x_min":0,"x_max":0,"o":"m 169 768 b 254 850 215 768 254 804 b 169 933 254 897 215 933 b 88 850 125 933 88 897 b 169 768 88 804 125 768 z m 110 38 b 11 -296 110 13 110 -268 l 11 -317 b 256 69 149 -282 256 -193 l 256 654 l 40 607 l 40 586 b 110 490 99 563 110 538 z "},"k":{"ha":744,"x_min":0,"x_max":0,"o":"m 726 21 b 603 83 699 22 646 26 b 379 372 603 83 533 156 b 739 621 583 610 694 619 l 739 642 l 414 642 l 414 621 b 394 428 597 625 394 428 l 264 289 b 356 164 264 289 324 210 b 567 0 453 25 471 0 l 726 0 z m 288 21 b 231 149 238 33 231 72 l 231 1031 l 14 986 l 14 965 b 83 881 71 950 83 929 l 83 149 b 28 21 83 78 81 36 l 28 0 l 288 0 z "},"l":{"ha":342,"x_min":0,"x_max":0,"o":"m 306 21 b 249 149 256 33 249 72 l 249 1031 l 32 986 l 32 965 b 101 881 89 950 101 929 l 101 149 b 46 21 101 78 99 36 l 46 0 l 306 0 l 306 21 z "},"m":{"ha":1081,"x_min":0,"x_max":0,"o":"m 1050 21 b 993 149 1000 33 993 72 l 993 438 b 814 654 993 606 925 654 b 610 506 726 654 638 590 b 435 654 592 610 532 654 b 231 511 347 654 265 592 l 231 654 l 14 607 l 14 586 b 83 490 71 563 83 539 l 83 147 b 29 21 83 76 82 36 l 29 0 l 288 0 l 288 21 b 231 147 239 35 231 71 l 231 453 b 353 569 236 501 292 569 b 465 433 428 569 465 522 l 465 149 b 410 21 465 78 463 36 l 410 0 l 669 0 l 669 21 b 613 149 619 33 613 72 l 611 432 b 611 450 611 439 611 444 b 732 569 611 503 671 569 b 846 433 807 569 846 522 l 846 149 b 790 21 846 78 843 36 l 790 0 l 1050 0 l 1050 21 z "},"n":{"ha":721,"x_min":0,"x_max":0,"o":"m 693 21 b 636 149 643 33 636 72 l 636 438 b 453 654 636 606 563 654 b 231 507 365 654 261 590 l 231 654 l 14 607 l 14 586 b 83 497 71 563 83 546 l 83 147 b 29 21 83 76 82 36 l 29 0 l 288 0 l 288 21 b 231 147 239 35 231 71 l 231 453 b 361 569 236 506 299 569 b 489 433 442 569 489 514 l 489 149 b 433 21 489 78 486 36 l 433 0 l 693 0 l 693 21 z "},"o":{"ha":761,"x_min":0,"x_max":0,"o":"m 533 321 b 382 8 533 69 486 8 b 231 321 279 8 231 69 b 382 633 231 572 279 633 b 533 321 486 633 533 572 z m 708 321 b 382 654 708 504 594 654 b 57 321 171 654 57 504 b 382 -12 57 139 171 -12 b 708 321 594 -12 708 139 z "},"p":{"ha":804,"x_min":0,"x_max":0,"o":"m 569 299 b 404 8 569 82 501 8 b 239 194 325 8 249 61 l 239 451 b 389 607 247 540 301 607 b 569 299 506 607 569 521 z m 740 315 b 447 654 740 521 618 654 b 239 544 379 654 282 622 l 239 654 l 22 607 l 22 586 b 92 510 79 571 92 558 l 92 -228 b 36 -347 92 -299 89 -332 l 36 -368 l 296 -368 l 296 -347 b 239 -228 246 -335 239 -304 l 239 35 b 407 -12 282 6 340 -12 b 740 315 597 -12 740 96 z "},"q":{"ha":793,"x_min":0,"x_max":0,"o":"m 549 183 b 403 21 546 89 494 21 b 229 347 286 21 229 125 b 393 633 229 564 296 633 b 549 421 474 633 546 574 z m 753 -347 b 696 -228 703 -335 696 -304 l 696 640 b 582 600 696 661 625 640 b 403 654 538 635 474 654 b 69 331 213 654 69 550 b 364 -12 69 125 192 -12 b 549 64 421 -12 500 10 l 549 -228 b 494 -347 549 -299 546 -332 l 494 -368 l 753 -368 z "},"r":{"ha":551,"x_min":0,"x_max":0,"o":"m 413 649 b 238 504 368 638 300 608 l 238 654 l 19 607 l 19 586 b 89 497 76 565 89 544 l 89 150 b 33 21 89 78 86 38 l 33 0 l 294 0 l 294 21 b 238 150 244 35 238 72 l 238 468 b 357 560 285 556 360 579 b 381 499 356 539 364 517 b 508 500 418 464 474 465 b 508 626 543 535 543 592 b 413 649 483 650 440 656 z "},"s":{"ha":604,"x_min":0,"x_max":0,"o":"m 497 60 b 400 351 565 157 525 274 l 260 439 b 275 633 139 515 164 633 b 482 449 426 633 468 514 l 503 449 l 503 611 b 275 654 503 611 435 654 b 88 579 135 654 88 579 b 189 299 21 482 54 385 l 329 214 b 313 8 435 144 435 8 b 86 229 140 8 101 156 l 65 229 l 65 47 b 313 -12 65 47 144 -12 b 497 60 447 -12 497 60 z "},"t":{"ha":465,"x_min":0,"x_max":0,"o":"m 432 125 b 349 71 421 100 389 71 b 244 204 281 71 244 110 l 244 621 l 404 621 l 410 642 l 244 642 l 244 857 l 97 833 l 97 642 l 24 642 l 28 621 l 97 621 l 97 200 b 265 -12 97 32 161 -12 b 450 114 353 -12 426 51 l 432 125 z "},"u":{"ha":754,"x_min":0,"x_max":0,"o":"m 726 40 b 656 122 668 47 656 56 l 656 654 l 443 628 l 443 607 b 508 503 513 601 508 588 l 508 171 b 376 72 482 114 429 72 b 246 203 296 72 246 111 l 246 654 l 22 628 l 22 607 b 100 503 103 599 100 590 l 100 199 b 286 -12 100 29 182 -12 b 508 132 376 -12 479 56 l 508 13 b 544 -11 508 13 508 -17 l 726 21 l 726 40 z "},"v":{"ha":719,"x_min":0,"x_max":0,"o":"m 449 642 l 449 622 b 521 424 600 622 521 424 l 429 186 l 274 521 b 308 622 274 521 224 622 l 308 642 l 0 642 l 0 622 b 96 550 25 621 63 621 b 357 -12 96 550 111 521 l 375 -12 l 544 425 b 718 622 625 619 676 622 l 718 642 z "},"w":{"ha":1092,"x_min":0,"x_max":0,"o":"m 819 642 l 819 622 b 897 435 967 622 897 435 l 810 192 l 658 533 b 699 622 658 533 610 622 l 699 642 l 400 642 l 400 622 b 486 556 422 621 456 618 b 535 450 486 556 492 544 l 440 192 l 288 535 b 324 622 288 535 243 622 l 324 642 l 26 642 l 26 622 b 115 556 49 621 85 618 b 369 -12 115 556 133 521 l 389 -12 l 546 422 l 740 -12 l 758 -12 l 919 428 b 1079 622 986 617 1049 622 l 1079 642 z "},"x":{"ha":735,"x_min":0,"x_max":0,"o":"m 600 85 l 404 379 l 453 443 b 703 621 593 631 668 619 l 703 642 l 397 642 l 397 621 b 440 460 547 621 463 496 l 393 397 l 306 529 b 319 621 256 600 285 621 l 319 642 l 13 642 l 13 621 b 115 563 40 619 64 625 l 308 276 l 253 199 b 21 21 119 17 51 21 l 21 0 l 318 0 l 318 21 b 268 182 164 21 238 136 l 321 258 l 414 118 b 415 21 414 118 485 21 l 415 0 l 725 0 l 725 21 b 600 85 703 21 644 21 z "},"y":{"ha":744,"x_min":0,"x_max":0,"o":"m 451 642 l 451 622 b 524 407 613 624 524 407 l 440 188 l 281 529 b 319 622 281 529 239 622 l 319 642 l 13 642 l 13 622 b 106 560 33 621 81 618 b 367 -8 106 560 240 274 l 308 -168 b 250 -219 288 -224 256 -237 b 208 -169 244 -199 231 -179 b 96 -212 165 -150 115 -169 b 139 -325 78 -256 96 -306 b 233 -312 168 -339 211 -331 b 329 -171 257 -294 296 -258 l 543 403 b 722 622 628 614 683 622 l 722 642 z "},"z":{"ha":622,"x_min":0,"x_max":0,"o":"m 568 642 l 79 642 l 72 458 l 93 458 b 400 621 119 569 214 621 l 40 0 l 533 0 l 546 211 l 525 211 b 228 21 506 121 436 21 z "},"{":{"ha":457,"x_min":0,"x_max":0,"o":"m 378 -208 b 289 4 321 -189 289 -140 l 289 204 b 119 389 289 356 203 389 b 289 589 203 389 289 436 l 289 789 b 378 1001 289 933 321 981 l 378 1021 b 178 789 268 1006 178 949 l 178 626 b 68 397 178 407 119 413 l 68 379 b 178 167 121 367 178 372 l 178 4 b 378 -228 178 -156 268 -212 l 378 -208 z "},"|":{"ha":297,"x_min":0,"x_max":0,"o":"m 101 -228 l 194 -228 l 194 1021 l 101 1021 z "},"}":{"ha":454,"x_min":0,"x_max":0,"o":"m 74 -228 b 274 4 183 -212 274 -156 l 274 167 b 383 379 274 372 331 367 l 383 397 b 274 626 332 413 274 407 l 274 789 b 74 1021 274 949 183 1006 l 74 1001 b 163 789 131 981 163 933 l 163 589 b 332 389 163 436 249 389 b 163 204 249 389 163 356 l 163 4 b 74 -208 163 -140 131 -189 z "},"~":{"ha":818,"x_min":0,"x_max":0,"o":"m 476 283 b 738 451 476 283 644 225 l 721 458 b 513 393 685 382 560 375 l 350 453 b 85 286 350 453 176 513 l 103 279 b 314 343 139 357 267 360 z "},"":{"ha":0,"x_min":0,"x_max":0,"o":""}," ":{"ha":357,"x_min":0,"x_max":0,"o":""},"¡":{"ha":419,"x_min":0,"x_max":0,"o":"m 172 494 l 133 -243 l 288 -243 l 250 494 z m 213 790 b 119 699 161 790 119 749 b 213 606 119 646 161 606 b 304 699 264 606 304 646 b 213 790 304 749 264 790 z "},"¢":{"ha":728,"x_min":0,"x_max":0,"o":"m 257 342 b 428 632 257 557 365 619 l 428 89 b 257 342 338 111 257 183 z m 658 178 b 453 85 631 128 538 78 l 453 633 b 549 597 526 633 561 601 b 508 556 532 590 515 576 b 551 456 492 517 511 471 b 653 500 592 439 638 461 b 639 581 665 528 656 561 b 453 654 621 603 569 654 l 453 824 l 428 824 l 428 654 b 104 321 218 642 104 479 b 428 -12 104 140 221 -11 l 428 -164 l 453 -164 l 453 -12 b 675 168 593 3 658 104 z "},"£":{"ha":915,"x_min":0,"x_max":0,"o":"m 393 117 b 194 8 356 50 289 8 b 72 94 176 8 96 10 b 261 189 56 156 129 246 b 393 117 303 172 343 149 z m 349 235 b 50 89 83 325 29 154 b 196 -12 81 -7 182 -12 b 446 83 297 -12 382 6 b 706 -8 540 24 626 -18 b 851 183 719 -7 853 32 l 831 188 b 628 126 819 126 722 94 b 513 174 628 126 536 157 b 503 446 553 251 561 351 l 461 503 l 699 503 l 699 524 l 449 524 b 588 993 228 907 378 1054 b 632 951 622 982 654 950 b 569 929 610 951 588 947 b 567 804 535 896 532 839 b 693 801 603 768 658 768 b 718 892 718 826 728 864 b 594 1011 704 929 679 975 b 260 524 406 1093 69 936 l 139 524 l 139 503 l 269 503 b 346 385 292 467 324 419 b 410 208 389 317 413 263 b 349 235 400 215 349 235 z "},"¤":{"ha":817,"x_min":0,"x_max":0,"o":"m 243 639 b 403 706 285 681 340 706 b 563 639 464 706 521 681 b 628 479 603 597 628 540 b 561 319 628 418 603 361 b 403 253 521 278 464 253 b 243 319 340 253 285 278 b 176 479 200 361 176 418 b 243 639 176 540 200 597 z m 665 285 b 729 479 707 340 729 407 b 665 674 729 551 707 619 l 781 788 l 711 857 l 597 743 b 403 807 543 785 474 807 b 207 743 331 807 263 785 l 94 857 l 25 788 l 139 674 b 75 479 99 619 75 551 b 139 285 75 407 99 340 l 25 171 l 94 101 l 207 215 b 403 151 263 175 331 151 b 597 215 474 151 543 175 l 711 101 l 781 171 z "},"¥":{"ha":918,"x_min":0,"x_max":0,"o":"m 564 957 b 632 672 758 957 656 721 l 533 469 l 333 800 b 365 958 239 960 332 958 l 365 978 l -33 978 l -33 958 b 113 849 7 957 51 956 b 347 449 113 849 168 763 l 117 449 l 117 426 l 358 426 l 379 392 l 379 329 l 117 329 l 117 307 l 379 307 l 379 161 b 268 21 379 58 326 21 l 268 0 l 657 0 l 657 21 b 546 161 599 21 546 58 l 546 307 l 779 307 l 779 329 l 546 329 l 546 426 l 779 426 l 779 449 l 546 449 l 644 651 b 951 957 799 956 903 957 l 951 978 l 564 978 z "},"¦":{"ha":294,"x_min":0,"x_max":0,"o":"m 196 1021 l 99 1021 l 99 500 l 196 500 z m 196 258 l 99 258 l 99 -265 l 196 -265 z "},"§":{"ha":757,"x_min":0,"x_max":0,"o":"m 263 547 b 299 521 269 542 283 532 b 467 411 310 513 408 453 b 508 93 571 342 708 236 b 460 128 497 103 481 115 b 293 233 447 136 353 194 b 263 547 189 304 57 411 z m 526 76 b 536 547 779 240 697 443 l 363 661 b 249 850 267 725 240 781 b 444 976 258 942 338 986 b 497 946 489 971 510 949 b 457 914 479 943 468 933 b 488 807 436 876 450 829 b 596 838 526 786 574 799 b 592 919 610 863 606 897 b 440 999 574 949 517 992 b 149 797 353 1006 171 1003 b 243 564 139 704 171 629 b 224 99 -15 396 65 204 l 399 -17 b 503 -204 493 -82 513 -135 b 318 -331 493 -296 417 -343 b 251 -303 275 -325 240 -304 b 303 -268 272 -300 292 -287 b 274 -161 325 -231 311 -182 b 165 -192 233 -140 186 -153 b 168 -274 150 -217 154 -251 b 319 -351 186 -303 243 -344 b 619 -151 407 -360 599 -357 b 526 76 631 -60 589 19 z "},"¨":{"ha":365,"x_min":0,"x_max":0,"o":"m 231 896 b 303 824 231 856 264 824 b 378 896 344 824 378 856 b 303 969 378 936 344 969 b 231 896 264 969 231 936 z m -11 896 b 63 824 -11 856 22 824 b 135 896 103 824 135 856 b 63 969 135 936 103 969 b -11 896 22 969 -11 936 z "},"©":{"ha":1122,"x_min":0,"x_max":0,"o":"m 725 383 b 560 235 708 253 622 235 b 408 499 493 235 408 271 b 560 761 408 724 490 761 b 725 614 619 761 708 744 l 744 614 l 751 733 b 560 781 703 772 640 781 b 288 499 393 781 288 664 b 560 215 288 333 393 215 b 751 264 643 215 693 225 l 744 383 z m 1076 511 b 560 1029 1076 797 844 1029 b 42 511 272 1029 42 797 b 560 -6 42 226 272 -6 b 1076 511 844 -6 1076 226 z m 986 511 b 560 82 986 276 793 82 b 131 511 324 82 131 276 b 560 942 131 747 324 942 b 986 511 793 942 986 747 z "},"ª":{"ha":417,"x_min":0,"x_max":0,"o":"m 215 804 b 215 718 215 804 215 719 b 161 669 211 699 192 669 b 107 719 114 669 107 708 b 215 804 107 760 139 786 z m 344 685 b 328 668 342 668 328 668 b 294 717 294 667 294 717 l 294 833 b 183 978 294 918 271 978 b 113 964 183 978 146 981 b 58 910 78 946 64 924 b 61 871 53 899 53 882 b 113 863 74 854 96 851 b 122 914 128 875 133 897 b 97 928 117 922 108 928 b 119 949 93 928 96 939 b 215 867 174 972 215 942 l 215 825 b 29 703 89 793 29 781 b 113 629 29 629 113 629 b 217 683 164 629 207 654 b 285 629 222 629 285 629 b 360 679 331 629 356 656 z "},"«":{"ha":847,"x_min":0,"x_max":0,"o":"m 725 701 l 404 369 l 725 46 l 725 90 l 538 369 l 725 656 z m 442 701 l 121 369 l 442 46 l 442 90 l 253 369 l 442 656 z "},"¬":{"ha":900,"x_min":0,"x_max":0,"o":"m 57 547 l 57 449 l 735 449 l 735 111 l 835 111 l 835 547 z "},"­":{"ha":617,"x_min":0,"x_max":0,"o":"m 526 299 l 526 410 l 89 410 l 89 299 z "},"®":{"ha":1126,"x_min":0,"x_max":0,"o":"m 651 639 b 511 511 651 511 590 511 l 488 511 l 488 763 l 511 763 b 651 639 588 763 651 765 z m 1076 513 b 560 1031 1076 799 844 1031 b 42 513 274 1031 42 799 b 560 -4 42 228 274 -4 b 1076 513 844 -4 1076 228 z m 986 513 b 560 86 986 278 794 86 b 132 513 324 86 132 278 b 560 942 132 749 324 942 b 986 513 794 942 986 749 z m 839 272 b 754 332 818 272 768 275 b 611 501 717 482 660 504 b 754 639 696 510 754 542 b 511 782 754 765 661 782 l 346 782 l 346 763 b 397 708 379 763 397 757 l 397 351 b 346 272 397 293 379 272 l 346 253 l 539 253 l 539 272 b 488 346 507 272 488 293 l 488 492 l 524 492 b 629 417 524 492 607 494 b 775 253 675 254 661 254 l 839 253 z "},"¯":{"ha":500,"x_min":0,"x_max":0,"o":"m 524 821 l 524 904 l -22 904 l -22 821 z "},"°":{"ha":529,"x_min":0,"x_max":0,"o":"m 129 843 b 261 972 129 914 188 972 b 390 843 332 972 390 914 b 261 713 390 771 332 713 b 129 843 188 713 129 771 z m 79 843 b 260 664 79 744 161 664 b 440 843 358 664 440 744 b 260 1024 440 943 358 1024 b 79 843 161 1024 79 943 z "},"±":{"ha":844,"x_min":0,"x_max":0,"o":"m 465 518 l 465 743 l 367 743 l 367 518 l 57 518 l 57 419 l 367 419 l 367 194 l 465 194 l 465 419 l 778 419 l 778 518 z m 57 0 l 778 0 l 778 99 l 57 99 z "},"²":{"ha":369,"x_min":0,"x_max":0,"o":"m 286 631 b 228 596 272 607 249 596 l 113 596 b 204 729 113 596 172 688 b 275 874 253 794 275 832 b 165 978 275 931 229 978 b 42 860 165 978 51 981 l 61 856 b 186 738 97 971 296 911 l 43 526 l 276 526 l 304 631 z "},"³":{"ha":376,"x_min":0,"x_max":0,"o":"m 321 667 b 226 774 318 708 289 756 b 172 978 338 858 268 978 b 56 875 169 978 65 978 l 76 872 b 190 910 94 926 154 939 b 132 763 238 872 233 786 l 132 742 b 251 644 228 732 247 674 b 171 538 260 586 229 538 b 113 550 121 538 106 549 b 132 574 122 554 128 563 b 103 626 138 596 125 619 b 51 597 81 632 57 619 b 63 554 47 582 51 564 b 171 518 86 535 122 518 b 321 667 228 518 325 554 z "},"´":{"ha":500,"x_min":0,"x_max":0,"o":"m 121 775 l 161 775 l 494 961 l 361 1001 z "},"µ":{"ha":749,"x_min":0,"x_max":0,"o":"m 719 40 b 649 121 661 47 649 54 l 649 654 l 436 628 l 436 607 b 501 503 506 601 501 588 l 501 171 b 369 72 475 114 422 72 b 239 197 289 72 242 110 l 239 654 l 15 628 l 15 607 b 93 503 96 599 93 589 l 93 -343 b 131 -367 93 -343 93 -374 l 311 -336 l 311 -315 b 239 -226 253 -310 239 -294 l 239 -3 b 501 132 347 -32 471 47 l 501 13 b 538 -11 501 13 501 -18 l 719 19 l 719 40 z "},"¶":{"ha":893,"x_min":0,"x_max":0,"o":"m 669 776 b 783 957 669 874 714 957 l 783 978 l 581 978 l 581 -368 l 774 -368 l 774 -347 b 669 -158 707 -347 669 -267 z m 400 978 l 399 978 b 51 694 232 976 51 924 b 399 417 51 464 210 417 l 399 -171 b 226 -347 399 -324 293 -347 l 226 -368 l 489 -368 l 489 978 z "},"·":{"ha":361,"x_min":0,"x_max":0,"o":"m 183 342 b 257 415 224 342 257 375 b 183 489 257 456 224 489 b 108 415 142 489 108 456 b 183 342 108 375 142 342 z "},"¸":{"ha":378,"x_min":0,"x_max":0,"o":"m 161 -6 l 118 -128 b 260 -224 229 -107 260 -193 b 183 -301 260 -271 229 -301 b 140 -289 144 -301 138 -292 b 153 -272 146 -286 150 -282 b 125 -225 158 -251 146 -232 b 78 -251 106 -219 83 -231 b 89 -290 74 -265 79 -282 b 183 -319 99 -299 131 -319 b 328 -206 229 -319 315 -301 b 153 -89 336 -135 281 -60 l 182 -6 z "},"¹":{"ha":307,"x_min":0,"x_max":0,"o":"m 193 601 l 193 979 l 172 979 l 54 894 l 69 874 b 122 860 79 882 122 907 l 122 601 b 63 549 122 554 90 549 l 63 528 l 246 528 l 246 549 b 193 601 224 549 193 553 z "},"º":{"ha":454,"x_min":0,"x_max":0,"o":"m 225 539 b 132 746 174 539 132 568 b 225 961 132 925 174 961 b 317 746 275 961 317 925 b 225 539 317 568 278 539 z m 225 982 b 46 746 82 982 46 867 b 225 518 46 626 82 518 b 403 746 368 518 403 626 b 225 982 403 867 368 982 z "},"»":{"ha":846,"x_min":0,"x_max":0,"o":"m 117 656 l 304 369 l 117 90 l 117 46 l 438 369 l 117 701 z m 400 656 l 589 369 l 400 90 l 400 46 l 721 369 l 400 701 z "},"¼":{"ha":892,"x_min":0,"x_max":0,"o":"m 629 189 l 528 189 b 518 224 511 189 496 189 l 629 389 z m 792 983 l 19 50 l 99 50 l 872 983 z m 308 540 b 254 596 285 540 254 540 l 254 1036 l 231 1036 l 108 939 l 121 921 b 179 911 135 932 179 961 l 179 596 b 118 540 179 543 147 540 l 118 521 l 308 521 z m 790 146 l 790 189 l 718 189 l 718 506 l 685 510 l 449 157 l 449 146 l 629 146 l 629 101 b 572 19 629 22 601 19 l 572 0 l 775 0 l 775 19 b 718 104 744 19 718 21 l 718 146 z "},"½":{"ha":899,"x_min":0,"x_max":0,"o":"m 824 119 b 753 79 808 92 776 79 l 619 79 b 724 232 619 79 689 185 b 807 396 781 306 807 349 b 683 517 807 461 757 517 b 546 381 683 517 557 519 l 565 375 b 706 242 606 506 831 440 l 544 0 l 810 0 l 843 119 z m 792 983 l 19 50 l 99 50 l 872 983 z m 308 540 b 254 596 285 540 254 540 l 254 1036 l 231 1036 l 108 939 l 121 921 b 179 911 135 932 179 961 l 179 596 b 118 540 179 543 147 540 l 118 521 l 308 521 z "},"¾":{"ha":893,"x_min":0,"x_max":0,"o":"m 629 189 l 528 189 b 518 224 511 189 496 189 l 629 389 z m 792 983 l 19 50 l 99 50 l 872 983 z m 204 517 b 372 685 268 517 376 553 b 263 808 369 732 333 790 b 203 1036 390 903 313 1036 b 75 921 200 1036 85 1036 l 96 914 b 225 960 115 975 185 990 b 158 793 276 918 272 821 l 158 775 b 293 660 268 765 289 694 b 204 536 301 592 278 536 b 140 554 147 536 133 553 b 158 578 149 558 154 565 b 125 638 168 603 151 631 b 67 604 101 646 74 631 b 81 557 63 589 68 568 b 204 517 107 535 147 517 z m 790 146 l 790 189 l 718 189 l 718 506 l 685 510 l 449 157 l 449 146 l 629 146 l 629 101 b 572 19 629 22 601 19 l 572 0 l 775 0 l 775 19 b 718 104 744 19 718 21 l 718 146 z "},"¿":{"ha":828,"x_min":0,"x_max":0,"o":"m 350 554 b 453 453 350 497 396 453 b 556 554 510 453 556 497 b 453 658 556 613 510 658 b 350 554 396 658 350 613 z m 346 172 b 140 -139 268 146 131 64 b 606 -329 150 -326 383 -429 b 719 -211 674 -300 711 -242 b 710 -125 726 -183 729 -151 b 593 -101 683 -87 629 -75 b 574 -219 557 -128 547 -182 b 625 -253 586 -237 604 -250 b 599 -311 639 -254 650 -290 b 315 -133 483 -357 332 -319 b 410 129 303 13 346 75 b 483 349 499 204 492 294 l 451 344 b 346 172 458 261 419 196 z "},"À":{"ha":969,"x_min":0,"x_max":0,"o":"m 571 306 l 399 739 l 239 306 z m 949 21 l 949 0 l 592 0 l 592 21 b 624 174 683 21 640 135 l 579 285 l 235 285 b 349 21 215 229 142 13 l 349 0 l 22 0 l 22 21 b 229 344 67 22 101 21 l 467 978 l 485 978 b 833 128 740 365 833 128 b 949 21 879 17 911 24 z m 424 1247 l 290 1207 l 624 1021 l 664 1021 z "},"Á":{"ha":969,"x_min":0,"x_max":0,"o":"m 239 306 l 399 739 l 571 306 z m 949 21 b 833 128 911 24 879 17 b 485 978 833 128 740 365 l 467 978 l 229 344 b 22 21 101 21 67 22 l 22 0 l 349 0 l 349 21 b 235 285 142 13 215 229 l 579 285 l 624 174 b 592 21 640 135 683 21 l 592 0 l 949 0 z m 304 1021 l 344 1021 l 678 1207 l 544 1247 z "},"Â":{"ha":969,"x_min":0,"x_max":0,"o":"m 571 306 l 399 739 l 239 306 z m 949 21 l 949 0 l 592 0 l 592 21 b 624 174 683 21 640 135 l 579 285 l 235 285 b 349 21 215 229 142 13 l 349 0 l 22 0 l 22 21 b 229 344 67 22 101 21 l 467 978 l 485 978 b 833 128 740 365 833 128 b 949 21 879 17 911 24 z m 642 1021 l 685 1021 l 478 1281 l 271 1021 l 313 1021 l 478 1144 z "},"Ã":{"ha":969,"x_min":0,"x_max":0,"o":"m 540 1053 b 801 1222 540 1053 710 996 l 785 1232 b 576 1164 750 1156 624 1146 l 414 1224 b 153 1056 414 1224 244 1282 l 169 1049 b 378 1114 207 1126 331 1129 z m 239 306 l 399 739 l 571 306 z m 949 21 b 833 128 911 24 879 17 b 485 978 833 128 740 365 l 467 978 l 229 344 b 22 21 101 21 67 22 l 22 0 l 349 0 l 349 21 b 235 285 142 13 215 229 l 579 285 l 624 174 b 592 21 640 135 683 21 l 592 0 l 949 0 z "},"Ä":{"ha":969,"x_min":0,"x_max":0,"o":"m 525 1153 b 597 1081 525 1113 557 1081 b 672 1153 638 1081 672 1113 b 597 1226 672 1193 638 1226 b 525 1153 557 1226 525 1193 z m 283 1153 b 356 1081 283 1113 317 1081 b 429 1153 397 1081 429 1113 b 356 1226 429 1193 397 1226 b 283 1153 317 1226 283 1193 z m 239 306 l 399 739 l 571 306 z m 949 21 b 833 128 911 24 879 17 b 485 978 833 128 740 365 l 467 978 l 229 344 b 22 21 101 21 67 22 l 22 0 l 349 0 l 349 21 b 235 285 142 13 215 229 l 579 285 l 624 174 b 592 21 640 135 683 21 l 592 0 l 949 0 z "},"Å":{"ha":969,"x_min":0,"x_max":0,"o":"m 390 1222 b 476 1310 390 1271 429 1310 b 564 1222 525 1310 564 1271 b 476 1136 564 1175 525 1136 b 390 1222 429 1136 390 1175 z m 336 1222 b 476 1081 336 1144 399 1081 b 619 1222 556 1081 619 1144 b 476 1365 619 1300 556 1365 b 336 1222 399 1365 336 1300 z m 239 306 l 399 739 l 571 306 z m 949 21 b 833 128 911 24 879 17 b 485 978 833 128 740 365 l 467 978 l 229 344 b 22 21 101 21 67 22 l 22 0 l 349 0 l 349 21 b 235 285 142 13 215 229 l 579 285 l 624 174 b 592 21 640 135 683 21 l 592 0 l 949 0 z "},"Æ":{"ha":1347,"x_min":0,"x_max":0,"o":"m 326 353 l 619 872 b 624 808 622 857 624 829 l 624 353 z m 1239 294 b 846 21 1197 18 908 21 l 796 21 l 796 482 l 860 482 b 1047 340 878 482 1036 486 l 1068 340 l 1068 644 l 1047 644 b 860 503 1036 499 878 503 l 796 503 l 796 957 l 853 957 b 1219 721 908 957 1196 957 l 1240 721 l 1240 978 l 510 978 l 510 957 b 610 904 551 957 590 954 l 313 375 b 14 21 129 53 58 24 l 14 0 l 351 0 l 351 21 b 318 332 268 21 157 35 l 624 332 l 624 176 b 526 21 624 44 586 21 l 526 0 l 1258 0 l 1258 294 z "},"Ç":{"ha":946,"x_min":0,"x_max":0,"o":"m 518 -12 l 478 -129 b 619 -225 589 -108 619 -194 b 543 -303 621 -272 589 -303 b 500 -290 504 -304 497 -293 b 513 -274 506 -287 510 -283 b 485 -226 517 -253 506 -233 b 438 -253 465 -221 443 -232 b 449 -292 433 -267 439 -283 b 543 -321 458 -300 490 -321 b 688 -207 589 -321 675 -303 b 513 -90 696 -136 640 -61 l 539 -12 b 886 74 688 -12 783 6 l 868 290 l 847 290 b 539 8 821 108 678 8 b 271 489 393 8 271 85 b 539 969 271 889 389 969 b 847 689 674 969 789 897 l 868 689 l 886 906 b 539 990 799 976 682 990 b 57 489 246 990 57 783 b 518 -12 57 203 238 -4 z "},"È":{"ha":868,"x_min":0,"x_max":0,"o":"m 781 296 l 781 0 l 40 0 l 40 21 b 118 176 99 21 118 82 l 118 808 b 40 957 118 894 101 957 l 40 978 l 763 978 l 763 721 l 742 721 b 353 957 718 956 410 957 l 290 957 l 290 504 l 360 504 b 569 646 379 504 558 504 l 590 646 l 590 340 l 569 340 b 360 483 558 483 378 483 l 290 483 l 290 21 l 347 21 b 760 296 408 21 715 18 z m 360 1247 l 226 1207 l 560 1021 l 600 1021 z "},"É":{"ha":868,"x_min":0,"x_max":0,"o":"m 760 296 b 347 21 715 18 408 21 l 290 21 l 290 483 l 360 483 b 569 340 378 483 558 483 l 590 340 l 590 646 l 569 646 b 360 504 558 504 379 504 l 290 504 l 290 957 l 353 957 b 742 721 410 957 718 956 l 763 721 l 763 978 l 40 978 l 40 957 b 118 808 101 957 118 894 l 118 176 b 40 21 118 82 99 21 l 40 0 l 781 0 l 781 296 z m 206 1021 l 246 1021 l 579 1207 l 446 1247 z "},"Ê":{"ha":868,"x_min":0,"x_max":0,"o":"m 781 296 l 781 0 l 40 0 l 40 21 b 118 176 99 21 118 82 l 118 808 b 40 957 118 894 101 957 l 40 978 l 763 978 l 763 721 l 742 721 b 353 957 718 956 410 957 l 290 957 l 290 504 l 360 504 b 569 646 379 504 558 504 l 590 646 l 590 340 l 569 340 b 360 483 558 483 378 483 l 290 483 l 290 21 l 347 21 b 760 296 408 21 715 18 z m 569 1021 l 613 1021 l 406 1281 l 199 1021 l 240 1021 l 406 1144 z "},"Ë":{"ha":868,"x_min":0,"x_max":0,"o":"m 456 1153 b 529 1081 456 1113 489 1081 b 603 1153 569 1081 603 1113 b 529 1226 603 1193 569 1226 b 456 1153 489 1226 456 1193 z m 214 1153 b 288 1081 214 1113 247 1081 b 361 1153 328 1081 361 1113 b 288 1226 361 1193 328 1226 b 214 1153 247 1226 214 1193 z m 760 296 b 347 21 715 18 408 21 l 290 21 l 290 483 l 360 483 b 569 340 378 483 558 483 l 590 340 l 590 646 l 569 646 b 360 504 558 504 379 504 l 290 504 l 290 957 l 353 957 b 742 721 410 957 718 956 l 763 721 l 763 978 l 40 978 l 40 957 b 118 808 101 957 118 894 l 118 176 b 40 21 118 82 99 21 l 40 0 l 781 0 l 781 296 z "},"Ì":{"ha":501,"x_min":0,"x_max":0,"o":"m 61 957 b 169 840 122 957 169 926 l 169 160 b 61 21 169 64 119 21 l 61 0 l 449 0 l 449 21 b 340 160 390 21 340 64 l 340 840 b 449 957 340 926 389 957 l 449 978 l 61 978 z m 196 1247 l 63 1207 l 396 1021 l 436 1021 z "},"Í":{"ha":501,"x_min":0,"x_max":0,"o":"m 61 957 b 169 840 122 957 169 926 l 169 160 b 61 21 169 64 119 21 l 61 0 l 449 0 l 449 21 b 340 160 390 21 340 64 l 340 840 b 449 957 340 926 389 957 l 449 978 l 61 978 z m 64 1021 l 104 1021 l 438 1207 l 304 1247 z "},"Î":{"ha":501,"x_min":0,"x_max":0,"o":"m 61 957 b 169 840 122 957 169 926 l 169 160 b 61 21 169 64 119 21 l 61 0 l 449 0 l 449 21 b 340 160 390 21 340 64 l 340 840 b 449 957 340 926 389 957 l 449 978 l 61 978 z m 422 1021 l 465 1021 l 258 1281 l 51 1021 l 93 1021 l 258 1144 z "},"Ï":{"ha":501,"x_min":0,"x_max":0,"o":"m 376 1081 b 450 1153 417 1081 450 1113 b 376 1226 450 1193 417 1226 b 303 1153 336 1226 303 1193 b 376 1081 303 1113 336 1081 z m 208 1153 b 135 1226 208 1193 175 1226 b 61 1153 94 1226 61 1193 b 135 1081 61 1113 94 1081 b 208 1153 175 1081 208 1113 z m 61 957 b 169 840 122 957 169 926 l 169 160 b 61 21 169 64 119 21 l 61 0 l 449 0 l 449 21 b 340 160 390 21 340 64 l 340 840 b 449 957 340 926 389 957 l 449 978 l 61 978 z "},"Ð":{"ha":1017,"x_min":0,"x_max":0,"o":"m 746 486 b 385 21 746 39 528 21 l 324 21 l 324 475 l 525 475 l 525 501 l 324 501 l 324 957 l 385 957 b 746 486 529 957 746 926 z m 951 486 b 385 978 951 893 661 978 l 53 978 l 53 957 b 151 800 114 957 151 886 l 151 501 l 36 501 l 36 475 l 151 475 l 151 178 b 53 21 151 83 113 21 l 53 0 l 385 0 b 951 486 661 0 951 72 z "},"Ñ":{"ha":1142,"x_min":0,"x_max":0,"o":"m 632 1053 b 893 1222 632 1053 801 996 l 876 1232 b 668 1164 842 1156 715 1146 l 506 1224 b 246 1056 506 1224 336 1282 l 263 1049 b 469 1114 299 1126 424 1129 z m 706 978 l 706 957 b 890 628 893 958 890 693 l 890 246 l 311 978 l 13 978 l 13 957 b 178 856 49 954 89 967 l 232 786 l 232 350 b 29 21 232 288 235 21 l 29 0 l 440 0 l 440 21 b 256 350 254 21 256 289 l 256 760 l 853 0 l 914 0 l 914 628 b 1114 957 914 693 908 958 l 1114 978 z "},"Ò":{"ha":1049,"x_min":0,"x_max":0,"o":"m 786 482 b 522 969 786 863 686 969 b 256 482 357 969 256 863 b 522 8 256 100 357 8 b 786 482 686 8 786 100 z m 988 482 b 522 -12 988 206 828 -12 b 57 482 217 -12 57 206 b 522 990 57 757 217 990 b 988 482 828 990 988 757 z m 442 1247 l 308 1207 l 642 1021 l 682 1021 z "},"Ó":{"ha":1049,"x_min":0,"x_max":0,"o":"m 786 482 b 522 8 786 100 686 8 b 256 482 357 8 256 100 b 522 969 256 863 357 969 b 786 482 686 969 786 863 z m 988 482 b 522 990 988 757 828 990 b 57 482 217 990 57 757 b 522 -12 57 206 217 -12 b 988 482 828 -12 988 206 z m 326 1021 l 367 1021 l 700 1207 l 567 1247 z "},"Ô":{"ha":1049,"x_min":0,"x_max":0,"o":"m 786 482 b 522 969 786 863 686 969 b 256 482 357 969 256 863 b 522 8 256 100 357 8 b 786 482 686 8 786 100 z m 988 482 b 522 -12 988 206 828 -12 b 57 482 217 -12 57 206 b 522 990 57 757 217 990 b 988 482 828 990 988 757 z m 685 1021 l 728 1021 l 521 1281 l 314 1021 l 356 1021 l 521 1144 z "},"Õ":{"ha":1049,"x_min":0,"x_max":0,"o":"m 429 1114 l 592 1053 b 853 1222 592 1053 760 996 l 836 1232 b 628 1163 800 1156 675 1146 l 465 1224 b 204 1054 465 1224 296 1282 l 221 1049 b 429 1114 258 1126 382 1129 z m 786 482 b 522 969 786 863 686 969 b 256 482 357 969 256 863 b 522 8 256 100 357 8 b 786 482 686 8 786 100 z m 988 482 b 522 -12 988 206 828 -12 b 57 482 217 -12 57 206 b 522 990 57 757 217 990 b 988 482 828 990 988 757 z "},"Ö":{"ha":1049,"x_min":0,"x_max":0,"o":"m 571 1153 b 644 1079 571 1113 604 1079 b 718 1153 685 1079 718 1113 b 644 1226 718 1193 685 1226 b 571 1153 604 1226 571 1193 z m 331 1153 b 403 1079 331 1113 363 1079 b 476 1153 443 1079 476 1113 b 403 1226 476 1193 443 1226 b 331 1153 363 1226 331 1193 z m 786 482 b 522 8 786 100 686 8 b 256 482 357 8 256 100 b 522 969 256 863 357 969 b 786 482 686 969 786 863 z m 988 482 b 522 990 988 757 828 990 b 57 482 217 990 57 757 b 522 -12 57 206 217 -12 b 988 482 828 -12 988 206 z "},"×":{"ha":833,"x_min":0,"x_max":0,"o":"m 494 353 l 751 610 l 674 689 l 417 432 l 161 689 l 82 610 l 339 353 l 82 97 l 161 18 l 417 275 l 674 18 l 751 97 z "},"Ø":{"ha":1050,"x_min":0,"x_max":0,"o":"m 524 8 b 321 121 433 8 365 35 l 740 817 b 788 482 771 742 788 633 b 524 8 788 100 688 8 z m 257 482 b 524 969 257 863 358 969 b 728 844 614 969 683 938 l 308 149 b 257 482 276 221 257 326 z m 796 908 l 871 1035 l 842 1035 l 775 922 b 524 990 707 965 624 990 b 58 482 218 990 58 757 b 256 61 58 303 125 147 l 189 -49 l 218 -49 l 276 49 b 524 -12 344 10 426 -12 b 989 482 829 -12 989 206 b 796 908 989 658 922 817 z "},"Ù":{"ha":1022,"x_min":0,"x_max":0,"o":"m 444 1247 l 311 1207 l 644 1021 l 685 1021 z m 461 -12 b 128 338 278 -12 128 111 l 128 836 b 24 957 128 925 85 957 l 24 978 l 418 978 l 418 957 b 297 835 358 957 297 939 l 297 326 b 542 60 297 158 400 60 b 781 331 665 60 781 154 l 781 725 b 604 957 781 792 781 958 l 604 978 l 994 978 l 994 957 b 801 725 799 958 801 792 l 801 331 b 461 -12 803 57 608 -12 z "},"Ú":{"ha":1022,"x_min":0,"x_max":0,"o":"m 461 -12 b 801 331 608 -12 803 57 l 801 725 b 994 957 801 792 799 958 l 994 978 l 604 978 l 604 957 b 781 725 781 958 781 792 l 781 331 b 542 60 781 154 665 60 b 297 326 400 60 297 158 l 297 835 b 418 957 297 939 358 957 l 418 978 l 24 978 l 24 957 b 128 836 85 957 128 925 l 128 338 b 461 -12 128 111 278 -12 z m 326 1021 l 367 1021 l 700 1207 l 567 1247 z "},"Û":{"ha":1022,"x_min":0,"x_max":0,"o":"m 689 1021 l 732 1021 l 525 1281 l 318 1021 l 360 1021 l 525 1144 z m 461 -12 b 128 338 278 -12 128 111 l 128 836 b 24 957 128 925 85 957 l 24 978 l 418 978 l 418 957 b 297 835 358 957 297 939 l 297 326 b 542 60 297 158 400 60 b 781 331 665 60 781 154 l 781 725 b 604 957 781 792 781 958 l 604 978 l 994 978 l 994 957 b 801 725 799 958 801 792 l 801 331 b 461 -12 803 57 608 -12 z "},"Ü":{"ha":1022,"x_min":0,"x_max":0,"o":"m 557 1153 b 631 1079 557 1113 590 1079 b 704 1153 671 1079 704 1113 b 631 1226 704 1193 671 1226 b 557 1153 590 1226 557 1193 z m 317 1153 b 389 1079 317 1113 349 1079 b 463 1153 429 1079 463 1113 b 389 1226 463 1193 429 1226 b 317 1153 349 1226 317 1193 z m 461 -12 b 801 331 608 -12 803 57 l 801 725 b 994 957 801 792 799 958 l 994 978 l 604 978 l 604 957 b 781 725 781 958 781 792 l 781 331 b 542 60 781 154 665 60 b 297 326 400 60 297 158 l 297 835 b 418 957 297 939 358 957 l 418 978 l 24 978 l 24 957 b 128 836 85 957 128 925 l 128 338 b 461 -12 128 111 278 -12 z "},"Ý":{"ha":1017,"x_min":0,"x_max":0,"o":"m 610 978 l 610 957 b 678 674 804 957 701 722 l 579 469 l 381 800 b 413 958 286 960 378 958 l 413 978 l 13 978 l 13 958 b 160 849 53 957 99 954 b 426 392 160 849 222 753 l 426 163 b 315 21 426 58 374 21 l 315 0 l 703 0 l 703 21 b 592 163 644 21 592 58 l 592 444 l 690 650 b 997 957 846 954 949 957 l 997 978 z m 357 1021 l 397 1021 l 731 1207 l 597 1247 z "},"Þ":{"ha":872,"x_min":0,"x_max":0,"o":"m 325 781 l 363 781 b 639 521 511 781 639 776 b 363 265 639 269 515 265 l 325 265 z m 363 244 b 828 521 639 244 828 282 b 363 801 828 760 639 801 l 325 801 l 325 833 b 429 957 325 919 369 957 l 429 978 l 50 978 l 50 957 b 156 833 111 957 156 919 l 156 165 b 50 21 156 71 108 21 l 50 0 l 429 0 l 429 21 b 325 165 371 21 325 71 l 325 244 z "},"ß":{"ha":840,"x_min":0,"x_max":0,"o":"m 807 281 b 486 582 807 513 581 582 b 674 799 514 582 674 624 b 375 1038 674 1003 518 1038 b 94 688 183 1038 94 900 l 94 167 b 39 21 94 96 92 38 l 39 0 l 243 0 l 243 735 b 375 1017 243 735 239 1017 b 535 806 396 1017 535 1026 b 379 589 535 618 453 589 l 379 568 b 633 294 475 568 632 490 b 485 8 635 150 611 8 b 428 32 431 8 415 28 b 467 71 443 39 458 53 b 426 164 481 107 463 150 b 333 124 390 179 347 161 b 346 44 324 99 331 67 b 485 -12 361 21 404 -12 b 807 281 722 -12 807 121 z "},"à":{"ha":706,"x_min":0,"x_max":0,"o":"m 414 335 b 208 161 265 301 208 239 b 308 61 208 142 221 61 b 414 138 368 61 401 104 b 414 335 414 140 414 335 z m 668 92 l 689 83 b 543 -12 679 40 624 -12 b 415 103 543 -12 428 -14 b 217 -12 396 39 314 -12 b 57 129 217 -12 57 -12 b 414 358 57 275 174 297 l 414 442 b 235 611 414 585 339 661 b 188 560 186 586 179 561 b 235 532 207 557 222 549 b 218 432 258 500 250 456 b 118 449 186 410 140 417 b 113 525 101 472 100 503 b 221 626 125 547 146 586 b 353 654 282 658 353 654 b 564 376 519 654 564 540 l 564 154 b 629 63 564 154 564 63 b 668 92 629 63 660 63 z m 303 978 l 169 938 l 503 751 l 543 751 z "},"á":{"ha":706,"x_min":0,"x_max":0,"o":"m 414 335 b 414 138 414 335 414 140 b 308 61 401 104 368 61 b 208 161 221 61 208 142 b 414 335 208 239 265 301 z m 668 92 b 629 63 660 63 629 63 b 564 154 564 63 564 154 l 564 376 b 353 654 564 540 519 654 b 221 626 353 654 282 658 b 113 525 146 586 125 547 b 118 449 100 503 101 472 b 218 432 140 417 186 410 b 235 532 250 456 258 500 b 188 560 222 549 207 557 b 235 611 179 561 186 586 b 414 442 339 661 414 585 l 414 358 b 57 129 174 297 57 275 b 217 -12 57 -12 217 -12 b 415 103 314 -12 396 39 b 543 -12 428 -14 543 -12 b 689 83 624 -12 679 40 z m 176 751 l 217 751 l 550 938 l 417 978 z "},"â":{"ha":706,"x_min":0,"x_max":0,"o":"m 414 335 b 208 161 265 301 208 239 b 308 61 208 142 221 61 b 414 138 368 61 401 104 b 414 335 414 140 414 335 z m 668 92 l 689 83 b 543 -12 679 40 624 -12 b 415 103 543 -12 428 -14 b 217 -12 396 39 314 -12 b 57 129 217 -12 57 -12 b 414 358 57 275 174 297 l 414 442 b 235 611 414 585 339 661 b 188 560 186 586 179 561 b 235 532 207 557 222 549 b 218 432 258 500 250 456 b 118 449 186 410 140 417 b 113 525 101 472 100 503 b 221 626 125 547 146 586 b 353 654 282 658 353 654 b 564 376 519 654 564 540 l 564 154 b 629 63 564 154 564 63 b 668 92 629 63 660 63 z m 529 718 l 572 718 l 365 978 l 158 718 l 200 718 l 365 842 z "},"ã":{"ha":706,"x_min":0,"x_max":0,"o":"m 426 769 b 688 939 426 769 594 713 l 671 947 b 463 879 635 872 510 863 l 300 940 b 39 771 300 940 131 997 l 56 765 b 264 829 93 843 217 846 z m 414 335 b 414 138 414 335 414 140 b 308 61 401 104 368 61 b 208 161 221 61 208 142 b 414 335 208 239 265 301 z m 668 92 b 629 63 660 63 629 63 b 564 154 564 63 564 154 l 564 376 b 353 654 564 540 519 654 b 221 626 353 654 282 658 b 113 525 146 586 125 547 b 118 449 100 503 101 472 b 218 432 140 417 186 410 b 235 532 250 456 258 500 b 188 560 222 549 207 557 b 235 611 179 561 186 586 b 414 442 339 661 414 585 l 414 358 b 57 129 174 297 57 275 b 217 -12 57 -12 217 -12 b 415 103 314 -12 396 39 b 543 -12 428 -14 543 -12 b 689 83 624 -12 679 40 z "},"ä":{"ha":706,"x_min":0,"x_max":0,"o":"m 478 782 b 551 856 518 782 551 815 b 478 929 551 896 518 929 b 406 856 438 929 406 896 b 478 782 406 815 438 782 z m 164 856 b 236 782 164 815 196 782 b 310 856 278 782 310 815 b 236 929 310 896 278 929 b 164 856 196 929 164 896 z m 414 335 b 208 161 265 301 208 239 b 308 61 208 142 221 61 b 414 138 368 61 401 104 b 414 335 414 140 414 335 z m 668 92 l 689 83 b 543 -12 679 40 624 -12 b 415 103 543 -12 428 -14 b 217 -12 396 39 314 -12 b 57 129 217 -12 57 -12 b 414 358 57 275 174 297 l 414 442 b 235 611 414 585 339 661 b 188 560 186 586 179 561 b 235 532 207 557 222 549 b 218 432 258 500 250 456 b 118 449 186 410 140 417 b 113 525 101 472 100 503 b 221 626 125 547 146 586 b 353 654 282 658 353 654 b 564 376 519 654 564 540 l 564 154 b 629 63 564 154 564 63 b 668 92 629 63 660 63 z "},"å":{"ha":706,"x_min":0,"x_max":0,"o":"m 353 972 b 439 886 400 972 439 933 b 353 800 439 839 400 800 b 265 886 304 800 265 839 b 353 972 265 933 304 972 z m 353 744 b 493 886 431 744 493 808 b 353 1028 493 964 431 1028 b 211 886 274 1028 211 964 b 353 744 211 808 274 744 z m 414 335 b 208 161 265 301 208 239 b 308 61 208 142 221 61 b 414 138 368 61 401 104 b 414 335 414 140 414 335 z m 668 92 l 689 83 b 543 -12 679 40 624 -12 b 415 103 543 -12 428 -14 b 217 -12 396 39 314 -12 b 57 129 217 -12 57 -12 b 414 358 57 275 174 297 l 414 442 b 235 611 414 585 339 661 b 188 560 186 586 179 561 b 235 532 207 557 222 549 b 218 432 258 500 250 456 b 118 449 186 410 140 417 b 113 525 101 472 100 503 b 221 626 125 547 146 586 b 353 654 282 658 353 654 b 564 376 519 654 564 540 l 564 154 b 629 63 564 154 564 63 b 668 92 629 63 660 63 z "},"æ":{"ha":1003,"x_min":0,"x_max":0,"o":"m 549 353 b 688 633 549 511 603 633 b 811 353 763 633 811 546 z m 901 178 b 714 83 872 124 794 71 b 547 332 607 100 554 176 l 946 332 b 688 654 946 554 869 654 b 493 557 606 654 549 617 b 335 654 464 615 413 654 b 214 625 335 654 275 657 b 108 525 139 585 119 547 b 114 449 96 503 97 472 b 213 432 136 417 181 410 b 231 532 246 456 253 500 b 185 563 218 549 204 560 b 226 610 176 564 178 586 b 400 442 331 661 400 585 l 400 358 b 57 129 165 296 57 267 b 217 -12 57 -12 217 -12 b 440 131 335 -12 422 51 b 678 -12 476 54 565 -12 b 922 167 853 -12 904 100 z m 426 154 b 304 61 414 119 374 61 b 208 161 217 61 208 140 b 400 336 208 281 361 325 b 400 282 400 336 399 308 b 426 154 403 246 411 192 z "},"ç":{"ha":682,"x_min":0,"x_max":0,"o":"m 411 633 b 507 599 485 633 519 601 b 467 557 490 592 474 578 b 510 456 450 517 469 472 b 611 501 550 440 596 463 b 597 582 624 529 614 563 b 411 654 579 604 529 654 b 63 322 186 654 63 488 b 329 -11 63 151 179 8 l 289 -126 b 429 -222 400 -106 429 -192 b 354 -300 431 -269 400 -300 b 310 -287 314 -301 307 -290 b 322 -271 315 -285 321 -279 b 296 -224 326 -250 317 -231 b 247 -250 275 -218 254 -229 b 258 -289 244 -264 250 -281 b 354 -318 268 -297 300 -318 b 497 -204 400 -318 486 -300 b 322 -87 507 -133 450 -58 l 349 -12 b 367 -12 360 -12 361 -12 b 633 169 539 -12 615 99 l 617 179 b 404 89 588 128 490 76 b 215 343 307 103 215 175 b 411 633 215 592 358 633 z "},"è":{"ha":704,"x_min":0,"x_max":0,"o":"m 503 354 b 358 633 503 543 429 633 b 206 354 278 633 206 508 z m 606 176 l 625 167 b 351 -12 607 99 526 -12 b 50 317 175 -12 50 143 b 364 654 50 517 182 654 b 647 333 546 654 647 551 l 206 333 b 390 83 214 172 290 99 b 606 176 471 71 575 110 z m 304 978 l 171 938 l 504 751 l 544 751 z "},"é":{"ha":704,"x_min":0,"x_max":0,"o":"m 206 354 b 358 633 206 508 278 633 b 503 354 429 633 503 543 z m 606 176 b 390 83 575 110 471 71 b 206 333 290 99 214 172 l 647 333 b 364 654 647 551 546 654 b 50 317 182 654 50 517 b 351 -12 50 143 175 -12 b 625 167 526 -12 607 99 z m 167 751 l 207 751 l 540 938 l 407 978 z "},"ê":{"ha":704,"x_min":0,"x_max":0,"o":"m 503 354 b 358 633 503 543 429 633 b 206 354 278 633 206 508 z m 606 176 l 625 167 b 351 -12 607 99 526 -12 b 50 317 175 -12 50 143 b 364 654 50 517 182 654 b 647 333 546 654 647 551 l 206 333 b 390 83 214 172 290 99 b 606 176 471 71 575 110 z m 513 718 l 556 718 l 349 978 l 142 718 l 183 718 l 349 842 z "},"ë":{"ha":704,"x_min":0,"x_max":0,"o":"m 478 782 b 551 856 518 782 551 815 b 478 929 551 896 518 929 b 404 856 436 929 404 896 b 478 782 404 815 436 782 z m 358 633 b 503 354 429 633 503 543 l 206 354 b 358 633 206 508 278 633 z m 390 83 b 206 333 290 99 214 172 l 647 333 b 364 654 647 551 546 654 b 50 317 182 654 50 517 b 351 -12 50 143 175 -12 b 625 167 526 -12 607 99 l 606 176 b 390 83 575 110 471 71 z m 236 782 b 310 856 276 782 310 815 b 236 929 310 896 276 929 b 164 856 196 929 164 896 b 236 782 164 815 196 782 z "},"ì":{"ha":367,"x_min":0,"x_max":0,"o":"m 314 21 l 314 0 l 54 0 l 54 21 b 110 149 107 38 110 78 l 110 496 b 40 586 110 543 97 563 l 40 607 l 257 654 l 257 149 b 314 21 257 72 264 35 z m 119 978 l -14 938 l 319 751 l 360 751 z "},"í":{"ha":367,"x_min":0,"x_max":0,"o":"m 314 21 b 257 149 264 35 257 72 l 257 654 l 40 607 l 40 586 b 110 496 97 563 110 543 l 110 149 b 54 21 110 78 107 38 l 54 0 l 314 0 z m -1 751 l 39 751 l 372 938 l 239 978 z "},"î":{"ha":367,"x_min":0,"x_max":0,"o":"m 314 21 l 314 0 l 54 0 l 54 21 b 110 149 107 38 110 78 l 110 496 b 40 586 110 543 97 563 l 40 607 l 257 654 l 257 149 b 314 21 257 72 264 35 z m 340 718 l 383 718 l 176 978 l -31 718 l 11 718 l 176 842 z "},"ï":{"ha":367,"x_min":0,"x_max":0,"o":"m 297 782 b 371 856 339 782 371 815 b 297 929 371 896 339 929 b 225 856 257 929 225 896 b 297 782 225 815 257 782 z m 57 782 b 129 856 97 782 129 815 b 57 929 129 896 97 929 b -17 856 15 929 -17 896 b 57 782 -17 815 15 782 z m 314 21 b 257 149 264 35 257 72 l 257 654 l 40 607 l 40 586 b 110 496 97 563 110 543 l 110 149 b 54 21 110 78 107 38 l 54 0 l 314 0 z "},"ð":{"ha":776,"x_min":0,"x_max":0,"o":"m 538 463 b 538 460 538 461 538 461 b 374 8 538 136 496 8 b 229 278 282 8 225 63 b 382 568 231 458 289 568 b 538 463 428 568 493 542 z m 721 449 b 553 888 721 647 647 800 l 693 961 l 672 979 l 531 904 b 244 990 454 958 356 990 l 244 969 b 454 865 325 969 403 939 l 219 744 l 238 726 l 465 843 b 538 503 508 765 536 642 b 326 607 489 589 393 607 b 53 300 133 607 56 456 b 374 -12 49 85 204 -12 b 721 449 608 -12 721 172 z "},"ñ":{"ha":721,"x_min":0,"x_max":0,"o":"m 426 769 b 688 939 426 769 594 713 l 671 947 b 463 879 635 872 510 863 l 300 940 b 39 771 300 940 131 997 l 56 765 b 264 829 93 843 217 846 z m 693 21 b 636 149 643 33 636 72 l 636 438 b 453 654 636 606 563 654 b 231 507 365 654 261 590 l 231 654 l 14 607 l 14 586 b 83 497 71 563 83 546 l 83 147 b 29 21 83 76 82 36 l 29 0 l 288 0 l 288 21 b 231 147 239 35 231 71 l 231 453 b 361 569 236 506 299 569 b 489 433 442 569 489 514 l 489 149 b 433 21 489 78 486 36 l 433 0 l 693 0 z "},"ò":{"ha":761,"x_min":0,"x_max":0,"o":"m 533 321 b 382 633 533 572 486 633 b 231 321 279 633 231 572 b 382 8 231 69 279 8 b 533 321 486 8 533 69 z m 708 321 b 382 -12 708 139 594 -12 b 57 321 171 -12 57 139 b 382 654 57 504 171 654 b 708 321 594 654 708 504 z m 331 978 l 197 938 l 531 751 l 571 751 z "},"ó":{"ha":761,"x_min":0,"x_max":0,"o":"m 533 321 b 382 8 533 69 486 8 b 231 321 279 8 231 69 b 382 633 231 572 279 633 b 533 321 486 633 533 572 z m 708 321 b 382 654 708 504 594 654 b 57 321 171 654 57 504 b 382 -12 57 139 171 -12 b 708 321 594 -12 708 139 z m 189 751 l 229 751 l 563 938 l 429 978 z "},"ô":{"ha":761,"x_min":0,"x_max":0,"o":"m 533 321 b 382 633 533 572 486 633 b 231 321 279 633 231 572 b 382 8 231 69 279 8 b 533 321 486 8 533 69 z m 708 321 b 382 -12 708 139 594 -12 b 57 321 171 -12 57 139 b 382 654 57 504 171 654 b 708 321 594 654 708 504 z m 550 718 l 593 718 l 386 978 l 179 718 l 221 718 l 386 842 z "},"õ":{"ha":761,"x_min":0,"x_max":0,"o":"m 283 829 l 446 769 b 707 939 446 769 615 713 l 690 947 b 482 879 656 872 529 863 l 319 940 b 60 771 319 940 150 997 l 76 765 b 283 829 113 843 238 846 z m 533 321 b 382 633 533 572 486 633 b 231 321 279 633 231 572 b 382 8 231 69 279 8 b 533 321 486 8 533 69 z m 708 321 b 382 -12 708 139 594 -12 b 57 321 171 -12 57 139 b 382 654 57 504 171 654 b 708 321 594 654 708 504 z "},"ö":{"ha":761,"x_min":0,"x_max":0,"o":"m 504 782 b 578 856 544 782 578 815 b 504 929 578 896 544 929 b 431 856 463 929 431 896 b 504 782 431 815 463 782 z m 263 782 b 336 856 303 782 336 815 b 263 929 336 896 303 929 b 190 856 222 929 190 896 b 263 782 190 815 222 782 z m 533 321 b 382 633 533 572 486 633 b 231 321 279 633 231 572 b 382 8 231 69 279 8 b 533 321 486 8 533 69 z m 708 321 b 382 -12 708 139 594 -12 b 57 321 171 -12 57 139 b 382 654 57 504 171 654 b 708 321 594 654 708 504 z "},"÷":{"ha":868,"x_min":0,"x_max":0,"o":"m 433 600 b 519 685 482 600 519 639 b 433 771 519 732 482 771 b 349 685 388 771 349 732 b 433 600 349 639 388 600 z m 807 329 l 807 439 l 63 439 l 63 329 z m 433 -1 b 519 83 482 -1 519 36 b 433 168 519 131 482 168 b 349 83 388 168 349 131 b 433 -1 349 36 388 -1 z "},"ø":{"ha":761,"x_min":0,"x_max":0,"o":"m 533 319 b 382 8 533 68 486 8 b 263 100 322 8 285 29 l 508 514 b 533 319 524 469 533 406 z m 122 -93 l 146 -93 l 217 25 b 382 -12 263 1 318 -12 b 708 319 594 -12 708 138 b 565 606 708 440 660 547 l 639 729 l 617 729 l 549 615 b 382 654 503 639 446 654 b 57 319 171 654 57 503 b 200 36 57 200 106 94 z m 254 125 b 231 319 239 169 231 232 b 382 633 231 571 279 633 b 501 540 443 633 479 611 z "},"ù":{"ha":754,"x_min":0,"x_max":0,"o":"m 726 40 l 726 21 l 544 -11 b 508 13 508 -17 508 13 l 508 132 b 286 -12 479 56 376 -12 b 100 199 182 -12 100 29 l 100 503 b 22 607 100 590 103 599 l 22 628 l 246 654 l 246 203 b 376 72 246 111 296 72 b 508 171 429 72 482 114 l 508 503 b 443 607 508 588 513 601 l 443 628 l 656 654 l 656 122 b 726 40 656 56 668 47 z m 331 978 l 197 938 l 531 751 l 571 751 z "},"ú":{"ha":754,"x_min":0,"x_max":0,"o":"m 726 40 b 656 122 668 47 656 56 l 656 654 l 443 628 l 443 607 b 508 503 513 601 508 588 l 508 171 b 376 72 482 114 429 72 b 246 203 296 72 246 111 l 246 654 l 22 628 l 22 607 b 100 503 103 599 100 590 l 100 199 b 286 -12 100 29 182 -12 b 508 132 376 -12 479 56 l 508 13 b 544 -11 508 13 508 -17 l 726 21 l 726 40 z m 207 751 l 247 751 l 581 938 l 447 978 z "},"û":{"ha":754,"x_min":0,"x_max":0,"o":"m 726 40 l 726 21 l 544 -11 b 508 13 508 -17 508 13 l 508 132 b 286 -12 479 56 376 -12 b 100 199 182 -12 100 29 l 100 503 b 22 607 100 590 103 599 l 22 628 l 246 654 l 246 203 b 376 72 246 111 296 72 b 508 171 429 72 482 114 l 508 503 b 443 607 508 588 513 601 l 443 628 l 656 654 l 656 122 b 726 40 656 56 668 47 z m 540 718 l 583 718 l 376 978 l 169 718 l 211 718 l 376 842 z "},"ü":{"ha":754,"x_min":0,"x_max":0,"o":"m 490 782 b 563 856 531 782 563 815 b 490 929 563 896 531 929 b 417 856 449 929 417 896 b 490 782 417 815 449 782 z m 249 782 b 322 856 289 782 322 815 b 249 929 322 896 289 929 b 175 856 207 929 175 896 b 249 782 175 815 207 782 z m 726 40 b 656 122 668 47 656 56 l 656 654 l 443 628 l 443 607 b 508 503 513 601 508 588 l 508 171 b 376 72 482 114 429 72 b 246 203 296 72 246 111 l 246 654 l 22 628 l 22 607 b 100 503 103 599 100 590 l 100 199 b 286 -12 100 29 182 -12 b 508 132 376 -12 479 56 l 508 13 b 544 -11 508 13 508 -17 l 726 21 z "},"ý":{"ha":744,"x_min":0,"x_max":0,"o":"m 453 642 l 453 621 b 524 407 614 624 524 407 l 440 188 l 282 529 b 321 621 282 529 239 621 l 321 642 l 13 642 l 13 621 b 106 560 33 621 81 618 b 365 -10 106 560 239 274 l 307 -168 b 251 -219 286 -224 256 -237 b 208 -169 244 -200 231 -179 b 96 -212 165 -150 115 -169 b 139 -325 78 -256 96 -306 b 235 -312 169 -339 211 -331 b 329 -172 257 -294 297 -258 l 543 401 b 722 621 628 614 683 621 l 722 642 z m 185 751 l 225 751 l 558 938 l 425 978 z "},"þ":{"ha":804,"x_min":0,"x_max":0,"o":"m 569 299 b 404 8 569 82 501 8 b 239 194 325 8 249 61 l 239 451 b 389 607 247 540 301 607 b 569 299 506 607 569 521 z m 740 315 b 447 654 740 521 618 654 b 239 544 379 654 282 622 l 239 1015 l 22 968 l 22 947 b 92 871 79 932 92 919 l 92 -228 b 36 -347 92 -299 89 -332 l 36 -368 l 296 -368 l 296 -347 b 239 -228 246 -335 239 -304 l 239 35 b 407 -12 282 6 340 -12 b 740 315 597 -12 740 96 z "},"ÿ":{"ha":744,"x_min":0,"x_max":0,"o":"m 492 782 b 565 856 532 782 565 815 b 492 929 565 896 532 929 b 419 856 451 929 419 896 b 492 782 419 815 451 782 z m 453 642 l 453 621 b 524 407 614 624 524 407 l 440 188 l 282 529 b 321 621 282 529 239 621 l 321 642 l 13 642 l 13 621 b 106 560 33 621 81 618 b 365 -10 106 560 239 274 l 307 -168 b 251 -219 286 -224 256 -237 b 208 -169 244 -200 231 -179 b 96 -212 165 -150 115 -169 b 139 -325 78 -256 96 -306 b 235 -312 169 -339 211 -331 b 329 -172 257 -294 297 -258 l 543 401 b 722 621 628 614 683 621 l 722 642 z m 250 782 b 324 856 292 782 324 815 b 250 929 324 896 292 929 b 178 856 210 929 178 896 b 250 782 178 815 210 782 z "},"Ă":{"ha":969,"x_min":0,"x_max":0,"o":"m 239 306 l 399 739 l 571 306 z m 949 21 b 833 128 911 24 879 17 b 485 978 833 128 740 365 l 467 978 l 229 344 b 22 21 101 21 67 22 l 22 0 l 349 0 l 349 21 b 235 285 142 13 215 229 l 579 285 l 624 174 b 592 21 640 135 683 21 l 592 0 l 949 0 z m 642 1264 b 479 1156 642 1213 610 1156 b 313 1264 343 1156 313 1213 l 293 1264 b 479 1064 293 1158 344 1064 b 660 1264 611 1064 660 1158 l 642 1264 z "},"ă":{"ha":706,"x_min":0,"x_max":0,"o":"m 414 335 b 414 138 414 335 414 140 b 308 61 401 104 368 61 b 208 161 221 61 208 142 b 414 335 208 239 265 301 z m 668 92 b 629 63 660 63 629 63 b 564 154 564 63 564 154 l 564 376 b 353 654 564 540 519 654 b 221 626 353 654 282 658 b 113 525 146 586 125 547 b 118 449 100 503 101 472 b 218 432 140 417 186 410 b 235 532 250 456 258 500 b 188 560 222 549 207 557 b 235 611 179 561 186 586 b 414 442 339 661 414 585 l 414 358 b 57 129 174 297 57 275 b 217 -12 57 -12 217 -12 b 415 103 314 -12 396 39 b 543 -12 428 -14 543 -12 b 689 83 624 -12 679 40 z m 528 978 b 365 869 528 926 496 869 b 199 978 229 869 199 926 l 179 978 b 365 778 179 872 231 778 b 546 978 497 778 546 872 z "},"Ą":{"ha":969,"x_min":0,"x_max":0,"o":"m 949 21 b 833 128 911 24 879 17 b 485 978 833 128 740 365 l 467 978 l 229 344 b 22 21 101 21 67 22 l 22 0 l 349 0 l 349 21 b 235 285 142 13 215 229 l 579 285 l 624 174 b 592 21 640 135 683 21 l 592 0 l 799 0 b 681 -194 708 -43 653 -103 b 824 -257 681 -194 704 -274 b 911 -147 900 -247 911 -197 l 892 -147 b 842 -206 892 -175 872 -203 b 756 -153 842 -206 771 -217 b 853 0 742 -104 781 -42 l 949 0 z m 239 306 l 399 739 l 571 306 z "},"ą":{"ha":706,"x_min":0,"x_max":0,"o":"m 668 92 b 629 63 660 63 629 63 b 564 154 564 63 564 154 l 564 376 b 353 654 564 540 519 654 b 221 626 353 654 282 658 b 113 525 146 586 125 547 b 118 449 100 503 101 472 b 218 432 140 417 186 410 b 235 532 250 456 258 500 b 188 560 222 549 207 557 b 235 611 179 561 186 586 b 414 442 339 661 414 585 l 414 358 b 57 129 174 297 57 275 b 217 -12 57 -12 217 -12 b 415 103 314 -12 396 39 b 514 -8 424 24 479 -1 b 418 -193 438 -51 393 -110 b 561 -256 418 -193 442 -272 b 649 -146 638 -246 649 -196 l 629 -146 b 579 -204 629 -174 610 -201 b 493 -151 579 -204 508 -215 b 571 -10 481 -107 511 -51 b 689 83 636 0 681 46 z m 414 138 b 308 61 401 104 368 61 b 208 161 221 61 208 142 b 414 335 208 239 265 301 z "},"Ć":{"ha":946,"x_min":0,"x_max":0,"o":"m 847 290 b 539 8 821 108 678 8 b 271 489 393 8 271 85 b 539 969 271 889 389 969 b 847 689 674 969 789 897 l 868 689 l 886 906 b 539 990 799 976 682 990 b 57 489 246 990 57 783 b 539 -12 57 196 246 -12 b 886 74 688 -12 783 6 l 868 290 z m 311 1021 l 351 1021 l 685 1207 l 551 1247 z "},"ć":{"ha":682,"x_min":0,"x_max":0,"o":"m 617 178 b 404 88 588 128 490 75 b 215 342 307 103 215 174 b 411 633 215 590 358 633 b 507 599 485 633 519 603 b 467 556 489 592 474 576 b 510 456 451 517 469 471 b 611 501 550 440 596 463 b 597 582 624 528 614 561 b 411 654 579 603 529 654 b 63 322 186 654 63 486 b 367 -12 63 139 199 -12 b 633 168 539 -12 615 99 z m 181 751 l 221 751 l 554 938 l 421 978 z "},"Č":{"ha":946,"x_min":0,"x_max":0,"o":"m 847 290 b 539 8 821 108 678 8 b 271 489 393 8 271 85 b 539 969 271 889 389 969 b 847 689 674 969 789 897 l 868 689 l 886 906 b 539 990 799 976 682 990 b 57 489 246 990 57 783 b 539 -12 57 196 246 -12 b 886 74 688 -12 783 6 l 868 290 z m 507 1157 l 342 1281 l 300 1281 l 507 1021 l 714 1281 l 671 1281 z "},"č":{"ha":682,"x_min":0,"x_max":0,"o":"m 617 178 b 404 88 588 128 490 75 b 215 342 307 103 215 174 b 411 633 215 590 358 633 b 507 599 485 633 519 603 b 467 556 489 592 474 576 b 510 456 451 517 469 471 b 611 501 550 440 596 463 b 597 582 624 528 614 561 b 411 654 579 603 529 654 b 63 322 186 654 63 486 b 367 -12 63 139 199 -12 b 633 168 539 -12 615 99 z m 368 854 l 203 978 l 161 978 l 368 718 l 575 978 l 532 978 z "},"Ď":{"ha":1067,"x_min":0,"x_max":0,"o":"m 751 486 b 390 21 751 39 532 21 l 329 21 l 329 957 l 390 957 b 751 486 535 957 751 926 z m 957 486 b 390 978 957 893 667 978 l 57 978 l 57 957 b 156 800 118 957 156 886 l 156 178 b 57 21 156 83 117 21 l 57 0 l 390 0 b 957 486 667 0 957 72 z m 415 1157 l 250 1281 l 208 1281 l 415 1021 l 622 1281 l 579 1281 z "},"ď":{"ha":965,"x_min":0,"x_max":0,"o":"m 794 978 b 731 718 794 771 731 718 l 744 700 b 911 978 744 700 911 796 z m 767 38 b 696 122 710 42 696 54 l 696 1031 l 479 986 l 479 965 b 550 885 536 950 550 933 l 550 608 b 381 654 506 636 447 654 b 47 329 192 654 47 550 b 342 -12 47 124 169 -12 b 550 94 408 -12 506 18 l 550 14 b 589 -11 550 14 550 -17 l 767 17 z m 550 197 b 393 32 550 100 486 32 b 218 346 276 32 218 124 b 383 633 218 563 286 633 b 550 417 465 633 550 571 z "},"Đ":{"ha":1026,"x_min":0,"x_max":0,"o":"m 746 486 b 385 21 746 39 528 21 l 324 21 l 324 475 l 525 475 l 525 501 l 324 501 l 324 957 l 385 957 b 746 486 529 957 746 926 z m 951 486 b 385 978 951 893 661 978 l 53 978 l 53 957 b 151 800 114 957 151 886 l 151 501 l 36 501 l 36 475 l 151 475 l 151 178 b 53 21 151 83 113 21 l 53 0 l 385 0 b 951 486 661 0 951 72 z "},"đ":{"ha":833,"x_min":0,"x_max":0,"o":"m 550 197 b 393 32 550 100 486 32 b 218 346 276 32 218 124 b 383 633 218 563 286 633 b 550 417 465 633 550 571 z m 397 783 l 550 783 l 550 608 b 381 654 506 636 447 654 b 47 329 192 654 47 550 b 342 -12 47 124 169 -12 b 550 94 408 -12 506 18 l 550 14 b 589 -11 550 14 550 -17 l 767 17 l 767 38 b 696 122 710 42 696 54 l 696 783 l 835 783 l 835 808 l 696 808 l 696 1031 l 479 986 l 479 965 b 550 885 536 950 550 933 l 550 808 l 397 808 z "},"Ę":{"ha":907,"x_min":0,"x_max":0,"o":"m 760 296 b 347 21 715 18 408 21 l 290 21 l 290 483 l 360 483 b 569 340 378 483 558 483 l 590 340 l 590 646 l 569 646 b 360 504 558 504 379 504 l 290 504 l 290 957 l 353 957 b 742 721 410 957 718 956 l 763 721 l 763 978 l 40 978 l 40 957 b 118 808 101 957 118 894 l 118 176 b 40 21 118 82 99 21 l 40 0 l 685 0 b 561 -197 592 -43 533 -104 b 704 -260 561 -197 585 -276 b 792 -150 781 -250 792 -200 l 772 -150 b 722 -208 772 -178 753 -206 b 636 -156 722 -208 651 -219 b 738 0 622 -106 663 -42 l 781 0 l 781 296 z "},"ę":{"ha":704,"x_min":0,"x_max":0,"o":"m 358 633 b 503 354 429 633 503 543 l 206 354 b 358 633 206 508 278 633 z m 390 83 b 206 333 290 99 214 172 l 647 333 b 364 654 647 551 546 654 b 50 317 182 654 50 517 b 332 -12 50 150 165 -1 b 339 -12 335 -12 336 -12 b 233 -200 257 -54 207 -115 b 375 -264 233 -200 256 -278 b 464 -153 451 -251 464 -203 l 443 -153 b 394 -211 443 -181 425 -208 b 307 -160 394 -211 325 -222 b 401 -10 296 -111 332 -51 b 625 167 543 8 608 106 l 606 176 b 390 83 575 110 471 71 z "},"Ě":{"ha":907,"x_min":0,"x_max":0,"o":"m 760 296 b 347 21 715 18 408 21 l 290 21 l 290 483 l 360 483 b 569 340 378 483 558 483 l 590 340 l 590 646 l 569 646 b 360 504 558 504 379 504 l 290 504 l 290 957 l 353 957 b 742 721 410 957 718 956 l 763 721 l 763 978 l 40 978 l 40 957 b 118 808 101 957 118 894 l 118 176 b 40 21 118 82 99 21 l 40 0 l 781 0 l 781 296 z m 432 1157 l 267 1281 l 225 1281 l 432 1021 l 639 1281 l 596 1281 z "},"ě":{"ha":704,"x_min":0,"x_max":0,"o":"m 206 354 b 358 633 206 508 278 633 b 503 354 429 633 503 543 z m 606 176 b 390 83 575 110 471 71 b 206 333 290 99 214 172 l 647 333 b 364 654 647 551 546 654 b 50 317 182 654 50 517 b 351 -12 50 143 175 -12 b 625 167 526 -12 607 99 z m 357 854 l 192 978 l 150 978 l 357 718 l 564 978 l 521 978 z "},"ı":{"ha":365,"x_min":0,"x_max":0,"o":"m 313 21 b 256 149 263 35 256 72 l 256 654 l 39 607 l 39 586 b 110 496 96 563 110 543 l 110 149 b 54 21 110 78 107 38 l 54 0 l 313 0 l 313 21 z "},"Ĺ":{"ha":889,"x_min":0,"x_max":0,"o":"m 783 301 b 371 21 747 21 446 21 l 321 21 l 321 833 b 436 957 321 933 376 957 l 436 978 l 51 978 l 51 957 b 150 836 111 957 150 921 l 150 172 b 63 21 150 78 122 21 l 63 0 l 803 0 l 803 301 z m 211 1021 l 251 1021 l 585 1207 l 451 1247 z "},"ĺ":{"ha":368,"x_min":0,"x_max":0,"o":"m 306 21 b 249 149 256 33 249 72 l 249 1031 l 32 986 l 32 965 b 101 881 89 950 101 929 l 101 149 b 46 21 101 78 99 36 l 46 0 l 306 0 z m -22 1061 l 18 1061 l 351 1247 l 218 1288 z "},"Ľ":{"ha":885,"x_min":0,"x_max":0,"o":"m 485 978 b 421 718 485 771 421 718 l 436 700 b 601 978 436 700 601 796 z m 783 301 b 371 21 747 21 446 21 l 321 21 l 321 833 b 436 957 321 933 376 957 l 436 978 l 51 978 l 51 957 b 150 836 111 957 150 921 l 150 172 b 63 21 150 78 122 21 l 63 0 l 803 0 l 803 301 z "},"ľ":{"ha":544,"x_min":0,"x_max":0,"o":"m 350 978 b 286 718 350 771 286 718 l 301 700 b 467 978 301 700 467 796 z m 306 21 b 249 149 256 33 249 72 l 249 1031 l 32 986 l 32 965 b 101 881 89 950 101 929 l 101 149 b 46 21 101 78 99 36 l 46 0 l 306 0 z "},"Ł":{"ha":897,"x_min":0,"x_max":0,"o":"m 817 303 b 404 21 817 231 764 21 l 354 21 l 354 492 l 631 647 l 631 674 l 354 518 l 354 833 b 471 957 354 935 410 957 l 471 978 l 85 978 l 85 957 b 183 836 144 957 183 922 l 183 421 l 14 326 l 14 300 l 183 394 l 183 182 b 96 21 183 88 154 21 l 96 0 l 838 0 l 838 303 z "},"ł":{"ha":433,"x_min":0,"x_max":0,"o":"m 17 369 l 142 447 l 142 149 b 86 21 142 78 139 36 l 86 0 l 344 0 l 344 21 b 289 149 296 33 289 72 l 289 542 l 410 618 l 410 644 l 289 568 l 289 1036 l 72 988 l 72 968 b 142 883 128 951 142 932 l 142 474 l 17 396 z "},"Ń":{"ha":1167,"x_min":0,"x_max":0,"o":"m 706 978 l 706 957 b 892 629 892 958 892 693 l 892 246 l 311 978 l 13 978 l 13 957 b 178 856 49 954 89 967 l 233 785 l 233 351 b 29 21 233 289 233 21 l 29 0 l 440 0 l 440 21 b 254 351 253 21 254 289 l 254 763 l 853 0 l 913 0 l 913 629 b 1114 957 913 693 908 958 l 1114 978 z m 379 1021 l 419 1021 l 753 1207 l 619 1247 z "},"ń":{"ha":721,"x_min":0,"x_max":0,"o":"m 693 21 b 636 149 643 33 636 72 l 636 438 b 453 654 636 606 563 654 b 231 507 365 654 261 590 l 231 654 l 14 607 l 14 586 b 83 497 71 563 83 546 l 83 147 b 29 21 83 76 82 36 l 29 0 l 288 0 l 288 21 b 231 147 239 35 231 71 l 231 453 b 361 569 236 506 299 569 b 489 433 442 569 489 514 l 489 149 b 433 21 489 78 486 36 l 433 0 l 693 0 z m 200 751 l 240 751 l 574 938 l 440 978 z "},"Ň":{"ha":1167,"x_min":0,"x_max":0,"o":"m 706 978 l 706 957 b 892 629 892 958 892 693 l 892 246 l 311 978 l 13 978 l 13 957 b 178 856 49 954 89 967 l 233 785 l 233 351 b 29 21 233 289 233 21 l 29 0 l 440 0 l 440 21 b 254 351 253 21 254 289 l 254 763 l 853 0 l 913 0 l 913 629 b 1114 957 913 693 908 958 l 1114 978 z m 561 1157 l 396 1281 l 354 1281 l 561 1021 l 768 1281 l 725 1281 z "},"ň":{"ha":721,"x_min":0,"x_max":0,"o":"m 693 21 b 636 149 643 33 636 72 l 636 438 b 453 654 636 606 563 654 b 231 507 365 654 261 590 l 231 654 l 14 607 l 14 586 b 83 497 71 563 83 546 l 83 147 b 29 21 83 76 82 36 l 29 0 l 288 0 l 288 21 b 231 147 239 35 231 71 l 231 453 b 361 569 236 506 299 569 b 489 433 442 569 489 514 l 489 149 b 433 21 489 78 486 36 l 433 0 l 693 0 z m 364 854 l 199 978 l 157 978 l 364 718 l 571 978 l 528 978 z "},"Ő":{"ha":1076,"x_min":0,"x_max":0,"o":"m 786 482 b 522 8 786 100 686 8 b 256 482 357 8 256 100 b 522 969 256 863 357 969 b 786 482 686 969 786 863 z m 988 482 b 522 990 988 757 828 990 b 57 482 217 990 57 757 b 522 -12 57 206 217 -12 b 988 482 828 -12 988 206 z m 528 1021 l 568 1021 l 901 1207 l 764 1249 z m 285 1021 l 325 1021 l 658 1207 l 521 1249 z "},"ő":{"ha":761,"x_min":0,"x_max":0,"o":"m 533 321 b 382 8 533 69 486 8 b 231 321 279 8 231 69 b 382 633 231 572 279 633 b 533 321 486 633 533 572 z m 708 321 b 382 654 708 504 594 654 b 57 321 171 654 57 504 b 382 -12 57 139 171 -12 b 708 321 594 -12 708 139 z m 382 751 l 422 751 l 756 938 l 618 979 z m 139 751 l 179 751 l 513 938 l 375 979 z "},"Œ":{"ha":1342,"x_min":0,"x_max":0,"o":"m 640 164 b 496 8 640 17 564 8 b 257 482 331 8 257 100 b 496 969 257 863 331 969 b 640 808 565 969 640 961 z m 1232 296 b 863 21 1192 15 924 21 l 813 21 l 813 483 l 868 483 b 1035 340 886 483 1025 488 l 1056 340 l 1056 646 l 1035 646 b 868 504 1025 500 888 504 l 813 504 l 813 957 l 868 957 b 1214 721 924 957 1176 963 l 1235 721 l 1235 978 l 592 978 b 496 990 557 986 536 990 b 58 482 190 990 58 757 b 496 -12 58 206 190 -12 b 596 0 538 -12 560 -7 l 1253 0 l 1253 296 z "},"œ":{"ha":1089,"x_min":0,"x_max":0,"o":"m 642 349 b 774 633 642 507 689 633 b 897 349 843 633 897 542 z m 990 178 b 801 83 963 126 882 71 b 642 328 699 100 646 171 l 1032 328 b 774 654 1032 550 947 654 b 572 543 693 654 628 611 b 353 654 526 608 457 654 b 56 318 142 654 56 501 b 353 -12 56 136 142 -12 b 569 92 458 -12 518 26 b 776 -12 624 29 688 -12 b 1013 167 944 -12 993 100 z m 353 633 b 476 318 444 633 476 569 b 353 8 476 67 447 8 b 229 318 257 8 229 67 b 353 633 229 569 258 633 z "},"Ŕ":{"ha":954,"x_min":0,"x_max":0,"o":"m 599 713 b 338 468 599 468 485 468 l 294 468 l 294 957 l 338 957 b 599 713 479 957 599 960 z m 944 21 b 788 150 908 24 815 44 b 524 460 718 428 615 463 b 789 713 681 474 789 533 b 338 978 789 944 614 978 l 33 978 l 33 957 b 126 842 94 957 126 928 l 126 165 b 33 21 126 60 93 21 l 33 0 l 392 0 l 392 21 b 294 157 333 21 294 61 l 294 447 l 360 447 b 554 303 378 447 513 447 b 828 0 643 1 614 1 l 944 0 z m 238 1021 l 278 1021 l 611 1207 l 478 1247 z "},"ŕ":{"ha":590,"x_min":0,"x_max":0,"o":"m 413 649 b 238 504 368 638 300 608 l 238 654 l 19 607 l 19 586 b 89 497 76 565 89 544 l 89 150 b 33 21 89 78 86 38 l 33 0 l 294 0 l 294 21 b 238 150 244 35 238 72 l 238 468 b 357 560 285 556 360 579 b 381 499 356 539 364 517 b 508 500 418 464 474 465 b 508 626 543 535 543 592 b 413 649 483 650 440 656 z m 100 751 l 140 751 l 474 938 l 340 978 z "},"Ř":{"ha":954,"x_min":0,"x_max":0,"o":"m 599 713 b 338 468 599 468 485 468 l 294 468 l 294 957 l 338 957 b 599 713 479 957 599 960 z m 944 21 b 788 150 908 24 815 44 b 524 460 718 428 615 463 b 789 713 681 474 789 533 b 338 978 789 944 614 978 l 33 978 l 33 957 b 126 842 94 957 126 928 l 126 165 b 33 21 126 60 93 21 l 33 0 l 392 0 l 392 21 b 294 157 333 21 294 61 l 294 447 l 360 447 b 554 303 378 447 513 447 b 828 0 643 1 614 1 l 944 0 z m 392 1157 l 226 1281 l 185 1281 l 392 1021 l 599 1281 l 556 1281 z "},"ř":{"ha":551,"x_min":0,"x_max":0,"o":"m 413 649 b 238 504 368 638 300 608 l 238 654 l 19 607 l 19 586 b 89 497 76 565 89 544 l 89 150 b 33 21 89 78 86 38 l 33 0 l 294 0 l 294 21 b 238 150 244 35 238 72 l 238 468 b 357 560 285 556 360 579 b 381 499 356 539 364 517 b 508 500 418 464 474 465 b 508 626 543 535 543 592 b 413 649 483 650 440 656 z m 254 856 l 89 979 l 47 979 l 254 719 l 461 979 l 418 979 z "},"Ś":{"ha":814,"x_min":0,"x_max":0,"o":"m 701 101 b 551 508 790 235 736 386 l 329 654 b 369 969 135 781 219 969 b 685 690 596 969 665 796 l 706 690 l 706 924 b 369 990 706 924 589 990 b 94 883 163 990 94 883 b 249 488 -17 725 83 593 l 469 346 b 419 8 636 226 599 8 b 85 336 178 8 107 210 l 64 336 l 64 69 b 419 -12 64 69 172 -12 b 701 101 639 -12 701 101 z m 197 1021 l 238 1021 l 571 1207 l 438 1247 z "},"ś":{"ha":604,"x_min":0,"x_max":0,"o":"m 497 60 b 400 351 565 157 525 274 l 260 439 b 275 633 139 515 164 633 b 482 449 426 633 468 514 l 503 449 l 503 611 b 275 654 503 611 435 654 b 88 579 135 654 88 579 b 189 299 21 482 54 385 l 329 214 b 313 8 435 144 435 8 b 86 229 140 8 101 156 l 65 229 l 65 47 b 313 -12 65 47 144 -12 b 497 60 447 -12 497 60 z m 138 751 l 178 751 l 511 938 l 378 978 z "},"Ş":{"ha":814,"x_min":0,"x_max":0,"o":"m 701 101 b 551 508 790 235 736 386 l 329 654 b 369 969 135 781 219 969 b 685 690 596 969 665 796 l 706 690 l 706 924 b 369 990 706 924 589 990 b 94 883 163 990 94 883 b 249 488 -17 725 83 593 l 469 346 b 419 8 636 226 599 8 b 85 336 178 8 107 210 l 64 336 l 64 69 b 385 -11 64 69 163 -4 l 344 -128 b 486 -224 456 -107 486 -193 b 410 -301 486 -271 456 -301 b 367 -289 371 -301 364 -292 b 379 -272 372 -286 376 -282 b 351 -225 385 -251 372 -232 b 304 -251 332 -219 310 -231 b 315 -290 300 -265 306 -282 b 410 -319 325 -299 357 -319 b 554 -206 456 -319 542 -301 b 379 -89 563 -135 507 -60 l 406 -12 l 419 -12 b 701 101 639 -12 701 101 z "},"ş":{"ha":604,"x_min":0,"x_max":0,"o":"m 497 60 b 400 351 565 157 525 274 l 260 439 b 275 633 139 515 164 633 b 482 449 426 633 468 514 l 503 449 l 503 611 b 275 654 503 611 435 654 b 88 579 135 654 88 579 b 189 299 21 482 54 385 l 329 214 b 313 8 435 144 435 8 b 86 229 140 8 101 156 l 65 229 l 65 47 b 271 -11 65 47 132 -3 l 231 -128 b 372 -224 342 -107 372 -193 b 296 -301 372 -271 342 -301 b 253 -289 257 -301 250 -292 b 265 -272 258 -286 263 -282 b 238 -225 271 -251 258 -232 b 190 -251 218 -219 196 -231 b 201 -290 186 -265 192 -282 b 296 -319 211 -299 243 -319 b 440 -206 342 -319 428 -301 b 265 -89 449 -135 393 -60 l 292 -12 l 313 -12 b 497 60 447 -12 497 60 z "},"Š":{"ha":814,"x_min":0,"x_max":0,"o":"m 701 101 b 551 508 790 235 736 386 l 329 654 b 369 969 135 781 219 969 b 685 690 596 969 665 796 l 706 690 l 706 924 b 369 990 706 924 589 990 b 94 883 163 990 94 883 b 249 488 -17 725 83 593 l 469 346 b 419 8 636 226 599 8 b 85 336 178 8 107 210 l 64 336 l 64 69 b 419 -12 64 69 172 -12 b 701 101 639 -12 701 101 z m 386 1157 l 221 1281 l 179 1281 l 386 1021 l 593 1281 l 550 1281 z "},"š":{"ha":604,"x_min":0,"x_max":0,"o":"m 285 824 l 119 947 l 78 947 l 285 688 l 492 947 l 449 947 z m 497 60 b 400 351 565 157 525 274 l 260 439 b 275 633 139 515 164 633 b 482 449 426 633 468 514 l 503 449 l 503 611 b 275 654 503 611 435 654 b 88 579 135 654 88 579 b 189 299 21 482 54 385 l 329 214 b 313 8 435 144 435 8 b 86 229 140 8 101 156 l 65 229 l 65 47 b 313 -12 65 47 144 -12 b 497 60 447 -12 497 60 z "},"Ţ":{"ha":939,"x_min":0,"x_max":0,"o":"m 26 978 l 26 715 l 47 715 b 328 957 56 953 307 957 l 382 957 l 382 151 b 272 21 382 58 331 21 l 272 0 l 464 0 l 422 -121 b 564 -217 533 -100 564 -186 b 488 -294 564 -264 533 -294 b 444 -282 449 -294 442 -285 b 457 -265 450 -279 454 -275 b 429 -218 463 -244 450 -225 b 382 -244 410 -212 388 -224 b 393 -283 378 -258 383 -275 b 488 -312 403 -292 435 -312 b 632 -199 533 -312 619 -294 b 457 -82 640 -128 585 -53 l 485 0 l 661 0 l 661 21 b 551 151 603 21 551 58 l 551 957 l 606 957 b 888 715 615 957 879 953 l 908 715 l 908 978 z "},"ţ":{"ha":467,"x_min":0,"x_max":0,"o":"m 267 -12 b 457 117 349 -12 433 53 l 449 121 b 358 72 433 97 399 72 b 246 204 283 72 246 110 l 246 613 l 406 613 l 410 642 l 246 642 l 246 857 l 97 833 l 97 642 l 25 642 l 28 613 l 97 613 l 97 200 b 213 -7 97 64 140 8 l 171 -126 b 310 -222 282 -106 310 -192 b 233 -308 310 -269 285 -308 b 183 -293 192 -307 178 -296 b 203 -271 192 -290 199 -283 b 175 -225 210 -251 196 -231 b 128 -250 156 -218 133 -229 b 139 -289 124 -264 129 -281 b 233 -312 149 -297 174 -312 b 378 -206 279 -311 365 -300 b 200 -89 386 -135 331 -60 l 231 -10 b 267 -12 242 -12 254 -12 z "},"Ť":{"ha":939,"x_min":0,"x_max":0,"o":"m 26 978 l 26 715 l 47 715 b 328 957 56 953 307 957 l 382 957 l 382 151 b 272 21 382 58 331 21 l 272 0 l 661 0 l 661 21 b 551 151 603 21 551 58 l 551 957 l 606 957 b 888 715 615 957 879 953 l 908 715 l 908 978 z m 469 1157 l 304 1281 l 263 1281 l 469 1021 l 676 1281 l 633 1281 z "},"ť":{"ha":496,"x_min":0,"x_max":0,"o":"m 344 978 b 279 718 344 771 279 718 l 294 700 b 461 978 294 700 461 796 z m 432 125 b 349 71 421 100 389 71 b 244 204 281 71 244 110 l 244 621 l 404 621 l 410 642 l 244 642 l 244 857 l 97 833 l 97 642 l 24 642 l 28 621 l 97 621 l 97 200 b 265 -12 97 32 161 -12 b 450 114 353 -12 426 51 z "},"Ů":{"ha":1044,"x_min":0,"x_max":0,"o":"m 461 -12 b 801 331 608 -12 803 57 l 801 725 b 994 957 801 792 799 958 l 994 978 l 604 978 l 604 957 b 781 725 781 958 781 792 l 781 331 b 542 60 781 154 665 60 b 297 326 400 60 297 158 l 297 835 b 418 957 297 939 358 957 l 418 978 l 24 978 l 24 957 b 128 836 85 957 128 925 l 128 338 b 461 -12 128 111 278 -12 z m 414 1222 b 494 1304 414 1268 450 1304 b 575 1222 540 1304 575 1268 b 494 1142 575 1178 540 1142 b 414 1222 450 1142 414 1178 z m 363 1222 b 494 1092 363 1151 422 1092 b 626 1222 567 1092 626 1151 b 494 1354 626 1296 567 1354 b 363 1222 422 1354 363 1296 z "},"ů":{"ha":754,"x_min":0,"x_max":0,"o":"m 726 40 b 656 122 668 47 656 56 l 656 654 l 443 628 l 443 607 b 508 503 513 601 508 588 l 508 171 b 376 72 482 114 429 72 b 246 203 296 72 246 111 l 246 654 l 22 628 l 22 607 b 100 503 103 599 100 590 l 100 199 b 286 -12 100 29 182 -12 b 508 132 376 -12 479 56 l 508 13 b 544 -11 508 13 508 -17 l 726 21 z m 289 854 b 369 936 289 900 325 936 b 450 854 415 936 450 900 b 369 774 450 810 415 774 b 289 854 325 774 289 810 z m 238 854 b 369 724 238 783 297 724 b 501 854 442 724 501 783 b 369 986 501 928 442 986 b 238 854 297 986 238 928 z "},"Ű":{"ha":1044,"x_min":0,"x_max":0,"o":"m 461 -12 b 801 331 608 -12 803 57 l 801 725 b 994 957 801 792 799 958 l 994 978 l 604 978 l 604 957 b 781 725 781 958 781 792 l 781 331 b 542 60 781 154 665 60 b 297 326 400 60 297 158 l 297 835 b 418 957 297 939 358 957 l 418 978 l 24 978 l 24 957 b 128 836 85 957 128 925 l 128 338 b 461 -12 128 111 278 -12 z m 532 1021 l 572 1021 l 906 1207 l 768 1249 z m 289 1021 l 329 1021 l 663 1207 l 525 1249 z "},"ű":{"ha":754,"x_min":0,"x_max":0,"o":"m 726 40 b 656 122 668 47 656 56 l 656 654 l 443 628 l 443 607 b 508 503 513 601 508 588 l 508 171 b 376 72 482 114 429 72 b 246 203 296 72 246 111 l 246 654 l 22 628 l 22 607 b 100 503 103 599 100 590 l 100 199 b 286 -12 100 29 182 -12 b 508 132 376 -12 479 56 l 508 13 b 544 -11 508 13 508 -17 l 726 21 z m 368 751 l 408 751 l 742 938 l 604 979 z m 125 751 l 165 751 l 499 938 l 361 979 z "},"Ÿ":{"ha":1017,"x_min":0,"x_max":0,"o":"m 557 1153 b 629 1081 557 1113 590 1081 b 704 1153 671 1081 704 1113 b 629 1226 704 1193 671 1226 b 557 1153 590 1226 557 1193 z m 610 978 l 610 957 b 678 674 804 957 701 722 l 579 469 l 381 800 b 413 958 286 960 378 958 l 413 978 l 13 978 l 13 958 b 160 849 53 957 99 956 b 426 392 160 849 222 753 l 426 163 b 315 21 426 58 374 21 l 315 0 l 703 0 l 703 21 b 592 163 644 21 592 58 l 592 444 l 690 650 b 997 957 846 954 949 957 l 997 978 z m 315 1153 b 389 1081 315 1113 349 1081 b 461 1153 429 1081 461 1113 b 389 1226 461 1193 429 1226 b 315 1153 349 1226 315 1193 z "},"Ź":{"ha":807,"x_min":0,"x_max":0,"o":"m 265 21 l 771 978 l 92 978 l 67 697 l 93 697 b 506 957 138 867 285 957 l 572 957 l 33 0 l 721 0 l 756 324 l 732 324 b 315 21 699 185 567 21 z m 233 1021 l 274 1021 l 607 1207 l 474 1247 z "},"ź":{"ha":622,"x_min":0,"x_max":0,"o":"m 568 642 l 79 642 l 72 458 l 93 458 b 400 621 119 569 214 621 l 40 0 l 533 0 l 546 211 l 525 211 b 228 21 506 121 436 21 z m 163 751 l 203 751 l 536 938 l 403 978 z "},"Ż":{"ha":807,"x_min":0,"x_max":0,"o":"m 265 21 l 771 978 l 92 978 l 67 697 l 93 697 b 506 957 138 867 285 957 l 572 957 l 33 0 l 721 0 l 756 324 l 732 324 b 315 21 699 185 567 21 z m 438 1097 b 515 1175 481 1097 515 1132 b 438 1253 515 1218 481 1253 b 358 1175 394 1253 358 1218 b 438 1097 358 1132 394 1097 z "},"ż":{"ha":622,"x_min":0,"x_max":0,"o":"m 568 642 l 79 642 l 72 458 l 93 458 b 400 621 119 569 214 621 l 40 0 l 533 0 l 546 211 l 525 211 b 228 21 506 121 436 21 z m 321 792 b 399 869 364 792 399 826 b 321 947 399 913 364 947 b 242 869 278 947 242 913 b 321 792 242 826 278 792 z "},"Ž":{"ha":807,"x_min":0,"x_max":0,"o":"m 265 21 l 771 978 l 92 978 l 67 697 l 93 697 b 506 957 138 867 285 957 l 572 957 l 33 0 l 721 0 l 756 324 l 732 324 b 315 21 699 185 567 21 z m 435 1157 l 269 1281 l 228 1281 l 435 1021 l 642 1281 l 599 1281 z "},"ž":{"ha":622,"x_min":0,"x_max":0,"o":"m 324 824 l 158 947 l 117 947 l 324 688 l 531 947 l 488 947 z m 568 642 l 79 642 l 72 458 l 93 458 b 400 621 119 569 214 621 l 40 0 l 533 0 l 546 211 l 525 211 b 228 21 506 121 436 21 z "},"ƒ":{"ha":917,"x_min":0,"x_max":0,"o":"m 858 869 b 854 954 871 894 868 931 b 715 1021 840 976 789 1021 b 397 532 531 1021 431 800 l 293 532 l 292 510 l 397 510 l 324 -39 b 188 -311 324 -39 276 -311 b 132 -283 121 -311 122 -286 b 175 -247 149 -278 165 -265 b 142 -147 193 -210 178 -164 b 42 -182 104 -129 60 -144 b 46 -265 29 -207 32 -243 b 189 -332 60 -287 104 -332 b 500 136 378 -333 456 -200 l 551 510 l 707 510 l 715 532 l 553 532 l 581 733 b 717 1000 581 733 626 1000 b 768 971 776 1000 776 974 b 725 935 749 965 735 953 b 760 835 707 897 722 853 b 858 869 796 817 840 832 z "},"ˆ":{"ha":414,"x_min":0,"x_max":0,"o":"m 207 863 l 372 738 l 414 738 l 207 999 l 0 738 l 42 738 z "},"ˇ":{"ha":417,"x_min":0,"x_max":0,"o":"m 207 876 l 42 1000 l 0 1000 l 207 740 l 414 1000 l 371 1000 z "},"ˉ":{"ha":424,"x_min":0,"x_max":0,"o":"m 458 817 l 458 908 l -35 908 l -35 817 z "},"˘":{"ha":364,"x_min":0,"x_max":0,"o":"m 347 978 b 185 869 347 926 315 869 b 18 978 49 869 18 926 l -1 978 b 185 778 -1 872 50 778 b 365 978 317 778 365 872 l 347 978 z "},"˙":{"ha":375,"x_min":0,"x_max":0,"o":"m 190 818 b 268 896 233 818 268 853 b 190 974 268 939 233 974 b 111 896 147 974 111 939 b 190 818 111 853 147 818 z "},"˚":{"ha":383,"x_min":0,"x_max":0,"o":"m 114 885 b 194 967 114 931 150 967 b 275 885 240 967 275 931 b 194 804 275 840 240 804 b 114 885 150 804 114 840 z m 63 885 b 194 754 63 814 122 754 b 326 885 267 754 326 814 b 194 1017 326 958 267 1017 b 63 885 122 1017 63 958 z "},"˛":{"ha":381,"x_min":0,"x_max":0,"o":"m 225 -176 b 338 -15 211 -125 256 -57 l 338 4 b 150 -218 210 -39 117 -106 b 293 -281 150 -218 174 -297 b 381 -171 369 -271 381 -221 l 361 -171 b 311 -229 361 -199 342 -226 b 225 -176 311 -229 240 -240 z "},"˜":{"ha":599,"x_min":0,"x_max":0,"o":"m 361 774 b 622 942 361 774 529 715 l 606 951 b 397 883 569 875 444 865 l 235 943 b -26 775 235 943 65 1001 l -10 768 b 199 833 28 846 151 850 z "},"˝":{"ha":740,"x_min":0,"x_max":0,"o":"m 364 774 l 404 774 l 738 960 l 600 1001 z m 121 774 l 161 774 l 494 960 l 357 1001 z "},"Ω":{"ha":988,"x_min":0,"x_max":0,"o":"m 926 218 b 786 140 900 153 840 140 l 631 140 b 744 257 643 176 697 207 b 894 625 861 381 894 501 b 493 1021 894 843 763 1021 b 92 625 225 1021 92 843 b 243 257 92 501 126 381 b 356 140 290 207 344 176 l 200 140 b 61 218 147 140 88 153 l 40 218 l 81 0 l 438 0 b 271 618 411 142 271 268 b 493 1000 271 969 390 1000 b 717 618 596 1000 717 969 b 549 0 717 268 576 142 l 907 0 l 947 218 z "},"μ":{"ha":749,"x_min":0,"x_max":0,"o":"m 719 40 b 649 121 661 47 649 54 l 649 654 l 436 628 l 436 607 b 501 503 506 601 501 588 l 501 171 b 369 72 475 114 422 72 b 239 197 289 72 242 110 l 239 654 l 15 628 l 15 607 b 93 503 96 599 93 589 l 93 -343 b 131 -367 93 -343 93 -374 l 311 -336 l 311 -315 b 239 -226 253 -310 239 -294 l 239 -3 b 501 132 347 -32 471 47 l 501 13 b 538 -11 501 13 501 -18 l 719 19 l 719 40 z "},"π":{"ha":806,"x_min":0,"x_max":0,"o":"m 717 85 b 672 57 717 85 707 57 b 610 150 657 57 610 67 l 610 533 l 619 533 b 782 729 754 533 782 610 l 764 729 b 596 642 757 650 703 642 l 246 642 b 13 447 79 638 13 447 l 31 436 b 242 533 90 515 189 531 l 249 533 l 232 254 b 85 -42 226 156 171 25 l 96 -57 b 311 246 96 -57 303 63 l 328 533 l 496 533 l 496 115 b 614 -10 496 115 496 -10 b 736 75 689 -10 726 29 z "},"‐":{"ha":621,"x_min":0,"x_max":0,"o":"m 89 408 l 89 300 l 526 300 l 526 408 z "},"–":{"ha":779,"x_min":0,"x_max":0,"o":"m 0 392 l 0 308 l 779 308 l 779 392 z "},"—":{"ha":1465,"x_min":0,"x_max":0,"o":"m 0 392 l 0 308 l 1465 308 l 1465 392 z "},"‘":{"ha":351,"x_min":0,"x_max":0,"o":"m 243 1014 b 135 911 181 981 153 940 b 115 678 93 847 56 736 b 254 678 153 639 215 639 b 253 815 292 717 290 778 b 186 844 233 835 210 842 b 256 999 164 847 169 935 l 243 1014 z "},"’":{"ha":354,"x_min":0,"x_max":0,"o":"m 119 628 b 228 731 182 661 210 701 b 247 964 269 794 307 906 b 108 964 210 1003 147 1003 b 110 826 71 925 72 864 b 176 797 129 807 153 800 b 107 643 199 794 193 707 l 119 628 z "},"‚":{"ha":356,"x_min":0,"x_max":0,"o":"m 118 -178 b 226 -75 181 -144 208 -104 b 246 158 268 -11 306 100 b 107 158 208 197 146 197 b 108 21 69 119 71 58 b 175 -8 128 1 151 -6 b 106 -162 197 -11 192 -99 l 118 -178 z "},"“":{"ha":674,"x_min":0,"x_max":0,"o":"m 546 997 b 438 894 483 964 456 924 b 418 661 396 831 358 719 b 557 661 456 622 518 622 b 556 799 594 700 593 761 b 489 828 536 818 513 825 b 558 982 467 831 472 918 z m 233 997 b 125 894 172 964 143 924 b 106 661 85 831 47 719 b 244 661 143 622 207 622 b 243 799 283 700 282 761 b 176 828 224 818 200 825 b 246 982 154 831 160 918 z "},"”":{"ha":665,"x_min":0,"x_max":0,"o":"m 119 633 b 228 736 182 667 210 707 b 247 969 269 800 307 911 b 108 969 210 1008 147 1008 b 110 832 71 931 72 869 b 176 803 129 813 153 806 b 107 649 199 800 193 713 z m 432 633 b 540 736 493 667 522 707 b 560 969 581 800 618 911 b 421 969 522 1008 458 1008 b 422 832 382 931 383 869 b 489 803 442 813 465 806 b 419 649 511 800 506 713 z "},"„":{"ha":660,"x_min":0,"x_max":0,"o":"m 117 -178 b 225 -75 179 -144 207 -104 b 244 158 267 -11 304 100 b 106 158 207 197 144 197 b 107 21 68 119 69 58 b 174 -8 126 1 150 -6 b 104 -162 196 -11 190 -99 z m 429 -178 b 538 -75 490 -144 519 -104 b 557 158 578 -11 615 100 b 418 158 519 197 456 197 b 419 21 379 119 381 58 b 486 -8 439 1 463 -6 b 417 -162 508 -11 503 -99 z "},"†":{"ha":565,"x_min":0,"x_max":0,"o":"m 282 896 b 344 960 315 896 344 925 b 282 1022 344 993 315 1022 b 218 960 246 1022 218 993 b 282 896 218 925 246 896 z m 160 626 b 38 638 126 649 69 672 b 38 561 15 617 17 583 b 114 563 60 540 93 540 b 129 599 125 572 128 586 b 204 564 131 608 176 599 l 210 569 b 160 626 192 599 172 618 z m 293 560 b 322 757 293 642 322 688 b 282 842 322 757 326 842 b 240 757 238 842 240 757 b 269 560 240 688 269 638 b 214 406 269 560 272 488 b 276 -368 276 60 276 -347 l 288 -368 b 350 406 288 -347 286 60 b 293 560 290 485 293 560 z m 525 638 b 404 626 493 672 436 649 b 351 569 390 617 369 599 l 358 564 b 432 599 386 599 432 608 b 449 563 433 586 438 572 b 525 561 469 540 504 540 b 525 638 547 583 547 617 z "},"‡":{"ha":706,"x_min":0,"x_max":0,"o":"m 358 489 b 394 686 358 583 394 604 b 346 786 394 686 399 786 b 297 686 293 786 297 686 b 333 489 297 604 333 579 b 256 340 333 454 315 382 b 333 194 315 306 333 228 b 297 -3 333 99 297 78 b 347 -103 297 -3 293 -103 b 396 -3 399 -103 396 -3 b 358 194 396 78 358 103 b 435 340 358 228 376 300 b 358 489 376 378 358 454 z m 525 572 b 543 528 525 557 531 540 b 635 528 568 503 608 503 b 635 618 660 553 660 593 b 490 604 596 658 528 632 b 429 536 474 593 450 572 l 436 532 b 525 572 469 572 524 583 z m 346 853 b 421 926 388 853 421 885 b 346 1003 421 968 388 1003 b 271 926 304 1003 271 968 b 346 853 271 885 304 853 z m 347 -167 b 271 -242 304 -167 271 -201 b 347 -317 271 -283 304 -317 b 421 -242 388 -317 421 -283 b 347 -167 421 -201 388 -167 z m 149 528 b 168 572 161 540 167 557 b 254 532 168 583 222 572 l 263 536 b 201 604 240 572 218 593 b 57 618 164 632 96 658 b 57 528 32 593 32 553 b 149 528 83 503 124 503 z m 543 160 b 525 115 531 147 525 131 b 436 157 524 106 469 115 l 429 151 b 490 82 450 115 474 94 b 635 68 528 57 596 29 b 635 160 660 93 660 133 b 543 160 608 186 568 186 z m 168 115 b 149 160 167 131 161 147 b 57 160 124 186 82 186 b 57 68 32 133 32 93 b 201 82 96 29 164 57 b 263 151 218 94 240 115 l 254 157 b 168 115 222 115 168 106 z "},"•":{"ha":657,"x_min":0,"x_max":0,"o":"m 321 322 b 475 474 406 322 475 390 b 321 626 475 560 406 626 b 168 474 236 626 168 560 b 321 322 168 390 236 322 z "},"…":{"ha":1100,"x_min":0,"x_max":0,"o":"m 974 88 b 874 189 974 144 929 189 b 774 88 818 189 774 144 b 874 -11 774 33 818 -11 b 974 88 929 -11 974 33 z m 646 88 b 546 189 646 144 601 189 b 446 88 490 189 446 144 b 546 -11 446 33 490 -11 b 646 88 601 -11 646 33 z m 319 88 b 219 189 319 144 275 189 b 119 88 164 189 119 144 b 219 -11 119 33 164 -11 b 319 88 275 -11 319 33 z "},"‰":{"ha":1528,"x_min":0,"x_max":0,"o":"m 129 689 b 214 922 129 881 151 922 b 297 689 274 922 297 881 b 214 465 297 497 276 465 b 129 689 153 465 129 497 z m 403 689 b 214 943 403 817 365 943 b 24 689 61 943 24 817 b 214 444 24 561 61 444 b 403 689 365 444 403 561 z m 835 56 b 750 279 774 56 750 88 b 835 511 750 471 772 511 b 918 279 894 511 918 471 b 835 56 918 88 897 56 z m 835 532 b 646 279 682 532 646 407 b 835 35 646 151 682 35 b 1024 279 986 35 1024 151 b 835 532 1024 407 986 532 z m 167 0 l 249 0 l 882 978 l 800 978 z m 1293 56 b 1210 279 1233 56 1210 88 b 1293 511 1210 471 1232 511 b 1378 279 1353 511 1378 471 b 1293 56 1378 88 1357 56 z m 1293 532 b 1104 279 1140 532 1104 407 b 1293 35 1104 151 1140 35 b 1482 279 1446 35 1482 151 b 1293 532 1482 407 1446 532 z "},"‹":{"ha":471,"x_min":0,"x_max":0,"o":"m 390 701 l 69 369 l 390 46 l 390 90 l 201 369 l 390 656 z "},"›":{"ha":471,"x_min":0,"x_max":0,"o":"m 67 656 l 254 369 l 67 90 l 67 46 l 388 369 l 67 701 z "},"⁄":{"ha":476,"x_min":0,"x_max":0,"o":"m 636 1019 l -203 0 l -128 0 l 713 1019 z "},"€":{"ha":846,"x_min":0,"x_max":0,"o":"m 338 582 b 543 969 350 894 421 969 b 744 743 646 969 744 900 l 765 743 l 765 928 b 543 990 701 976 656 990 b 171 582 300 990 196 821 l 42 582 l 26 560 l 168 560 b 167 489 167 533 167 507 b 168 421 167 471 167 443 l 42 421 l 26 399 l 171 399 b 542 -12 194 160 300 -12 b 765 50 647 -12 697 3 l 765 235 l 744 235 b 543 8 744 76 640 8 b 338 399 422 8 350 82 l 610 399 l 624 421 l 336 421 b 336 489 336 425 336 483 b 336 560 336 494 336 554 l 632 560 l 647 582 l 338 582 z "},"ℓ":{"ha":486,"x_min":0,"x_max":0,"o":"m 265 467 l 314 513 b 369 964 454 647 424 894 b 265 719 361 975 265 1081 z m 460 128 b 315 -12 451 46 379 -12 b 118 269 208 -12 118 42 l 118 313 l 31 246 l 31 307 l 118 376 l 118 692 b 383 981 118 1028 293 1079 b 338 471 479 875 468 592 l 264 401 l 261 247 b 365 57 254 113 296 44 b 440 135 390 61 422 79 z "},"™":{"ha":971,"x_min":0,"x_max":0,"o":"m 885 658 l 885 907 b 929 957 885 944 906 957 l 929 978 l 817 978 l 700 678 l 563 978 l 435 978 l 435 957 b 493 933 449 957 478 957 l 493 732 b 417 600 493 700 494 600 l 417 579 l 582 579 l 582 600 b 515 732 511 600 515 699 l 515 906 l 663 574 l 682 574 l 817 914 l 817 658 b 775 600 817 615 799 600 l 775 579 l 933 579 l 933 600 b 885 658 908 600 885 615 z m 18 978 l 18 864 l 39 864 b 140 957 39 957 132 957 l 163 957 l 163 653 b 118 600 163 615 142 600 l 118 579 l 276 579 l 276 600 b 232 653 253 600 232 615 l 232 957 l 253 957 b 356 864 257 957 356 957 l 376 864 l 376 978 z "},"Ω":{"ha":988,"x_min":0,"x_max":0,"o":"m 926 218 b 786 140 900 153 840 140 l 631 140 b 744 257 643 176 697 207 b 894 625 861 381 894 501 b 493 1021 894 843 763 1021 b 92 625 225 1021 92 843 b 243 257 92 501 126 381 b 356 140 290 207 344 176 l 200 140 b 61 218 147 140 88 153 l 40 218 l 81 0 l 438 0 b 271 618 411 142 271 268 b 493 1000 271 969 390 1000 b 717 618 596 1000 717 969 b 549 0 717 268 576 142 l 907 0 l 947 218 z "},"℮":{"ha":1239,"x_min":0,"x_max":0,"o":"m 244 844 b 618 981 340 928 472 981 b 1000 838 768 981 903 925 l 1000 549 l 244 549 z m 618 1021 b 44 510 301 1021 44 792 b 618 0 44 228 301 0 b 1068 194 801 0 963 76 l 1011 194 b 618 40 914 100 774 40 b 244 176 472 40 340 93 l 244 510 l 1192 510 b 618 1021 1192 792 935 1021 z "},"∂":{"ha":747,"x_min":0,"x_max":0,"o":"m 518 463 b 338 8 492 160 432 8 b 217 289 242 8 194 60 b 386 578 235 492 310 578 b 518 463 433 578 500 529 z m 688 463 b 354 1033 715 813 589 1033 b 88 917 238 1033 135 986 l 131 783 l 153 790 b 354 1013 143 894 247 1013 b 524 504 479 1013 556 903 b 326 636 497 603 386 636 b 57 313 151 636 69 472 b 338 -12 38 97 149 -12 b 688 463 558 -12 667 189 z "},"∆":{"ha":992,"x_min":0,"x_max":0,"o":"m 110 56 l 424 788 l 738 56 z m 521 1025 l 444 1000 l 46 39 l 44 36 l 53 0 l 908 0 l 929 44 z "},"∏":{"ha":1085,"x_min":0,"x_max":0,"o":"m 908 819 b 1025 957 908 915 957 957 l 1025 978 l 53 978 l 53 957 b 169 819 122 957 169 915 l 169 65 b 53 -97 169 -42 119 -97 l 53 -118 l 471 -118 l 471 -97 b 358 65 406 -97 358 -42 l 358 815 b 471 956 358 913 404 956 l 603 956 b 719 815 671 956 719 913 l 719 65 b 603 -97 719 -42 669 -97 l 603 -118 l 1025 -118 l 1025 -97 b 908 65 958 -97 908 -42 l 908 819 z "},"∑":{"ha":928,"x_min":0,"x_max":0,"o":"m 267 957 l 388 957 b 840 675 592 957 790 849 l 864 675 l 835 978 l 29 978 l 378 333 l 106 -136 l 851 -136 l 889 215 l 867 215 b 351 -115 832 94 753 -115 l 215 -115 l 554 456 z "},"−":{"ha":869,"x_min":0,"x_max":0,"o":"m 807 300 l 807 408 l 67 408 l 67 300 z "},"∕":{"ha":479,"x_min":0,"x_max":0,"o":"m 636 1019 l -203 0 l -125 0 l 715 1019 z "},"∙":{"ha":369,"x_min":0,"x_max":0,"o":"m 186 338 b 264 414 229 338 264 372 b 186 492 264 458 229 492 b 108 414 142 492 108 458 b 186 338 108 372 142 338 z "},"√":{"ha":785,"x_min":0,"x_max":0,"o":"m 493 50 l 268 575 l 63 488 l 69 469 b 207 376 122 490 176 449 l 478 -257 l 503 -247 l 753 1185 l 692 1201 z "},"∞":{"ha":1088,"x_min":0,"x_max":0,"o":"m 935 567 b 774 635 892 611 835 635 b 613 567 713 635 657 611 b 533 483 611 565 533 483 b 453 567 533 483 454 565 b 292 635 410 611 353 635 b 129 568 231 635 172 611 b 129 243 47 478 43 331 b 292 175 172 200 231 175 b 453 243 353 175 410 200 b 533 326 454 244 533 326 b 613 243 533 326 611 244 b 774 175 657 199 713 175 b 935 243 835 175 892 200 b 935 567 1022 332 1022 478 z m 208 490 b 292 525 231 514 260 525 b 374 493 324 525 353 514 b 457 406 375 490 457 406 b 375 318 457 406 378 321 b 292 283 351 297 322 283 b 208 319 261 283 231 297 b 174 404 186 342 175 372 b 208 490 174 438 186 468 z m 857 319 b 774 283 833 297 804 283 b 690 319 742 283 713 297 b 610 404 689 322 610 404 b 690 490 610 404 689 489 b 774 525 711 514 742 525 b 857 490 806 525 835 514 b 892 404 879 468 892 438 b 857 319 892 372 879 342 z "},"∫":{"ha":532,"x_min":0,"x_max":0,"o":"m 493 1024 b 485 1097 503 1046 499 1079 b 367 1146 469 1115 429 1146 b 181 618 213 1146 151 968 l 229 7 b 163 -272 256 -274 169 -272 b 122 -251 125 -272 114 -254 b 157 -218 138 -246 150 -233 b 118 -132 169 -183 153 -146 b 33 -169 85 -118 46 -135 b 44 -243 25 -193 31 -224 b 161 -292 58 -262 99 -292 b 349 235 318 -292 378 -114 l 300 847 b 367 1126 275 1126 356 1126 b 407 1106 403 1126 413 1107 b 369 1071 392 1101 376 1089 b 408 986 357 1038 374 1000 b 493 1024 443 972 481 989 z "},"≈":{"ha":719,"x_min":0,"x_max":0,"o":"m 425 432 b 686 601 425 432 593 374 l 669 610 b 461 542 633 535 508 525 l 299 603 b 38 433 299 603 129 660 l 54 426 b 263 492 92 506 215 508 z m 425 182 b 686 350 425 182 593 124 l 669 360 b 461 292 633 283 508 274 l 299 351 b 38 183 299 351 129 410 l 54 176 b 263 242 92 254 215 258 z "},"≠":{"ha":732,"x_min":0,"x_max":0,"o":"m 667 481 l 667 569 l 503 569 l 572 721 l 493 758 l 406 569 l 64 569 l 64 481 l 363 481 l 281 301 l 64 301 l 64 214 l 239 214 l 175 75 l 256 39 l 336 214 l 667 214 l 667 301 l 379 301 l 461 481 z "},"≤":{"ha":739,"x_min":0,"x_max":0,"o":"m 265 478 l 665 688 l 665 813 l 78 511 l 78 447 l 665 146 l 665 269 z m 65 81 l 65 -21 l 665 -21 l 665 81 z "},"≥":{"ha":739,"x_min":0,"x_max":0,"o":"m 76 269 l 76 146 l 664 447 l 664 511 l 76 813 l 76 688 l 476 478 z m 76 81 l 76 -21 l 676 -21 l 676 81 z "},"◊":{"ha":776,"x_min":0,"x_max":0,"o":"m 594 454 l 386 50 l 176 454 l 386 858 z m 418 1018 l 356 1018 l 67 454 l 356 -110 l 418 -110 l 707 454 z "},"":{"ha":783,"x_min":0,"x_max":0,"o":"m 547 318 b 400 8 547 57 503 8 b 251 318 294 8 251 57 b 400 633 251 582 294 633 b 547 318 503 633 547 582 z m 722 318 b 400 654 722 544 604 654 b 78 318 196 654 78 535 b 400 -12 78 96 196 -12 b 722 318 604 -12 722 93 z "},"":{"ha":682,"x_min":0,"x_max":0,"o":"m 283 129 b 161 21 283 25 217 21 l 161 0 l 540 0 l 540 21 b 431 129 492 21 431 22 l 431 654 l 421 654 l 171 585 l 172 565 b 283 506 251 585 283 576 z "},"":{"ha":706,"x_min":0,"x_max":0,"o":"m 583 213 b 468 138 554 157 515 138 l 256 133 b 568 511 358 242 596 310 b 211 624 542 694 272 663 b 115 519 138 576 119 538 b 133 449 108 496 114 468 b 232 451 161 422 206 424 b 228 549 257 479 257 522 b 178 565 214 561 194 567 b 217 606 171 564 169 583 b 414 499 293 642 390 597 b 243 153 436 410 406 308 l 100 0 l 544 0 l 604 213 z "},"":{"ha":749,"x_min":0,"x_max":0,"o":"m 126 -293 b 368 -368 175 -342 246 -368 b 690 -33 489 -368 703 -279 b 479 201 686 58 614 160 b 367 654 728 389 576 654 b 115 424 353 654 140 653 l 138 419 b 407 506 176 538 332 569 b 279 158 507 422 501 213 l 279 136 b 544 -87 489 115 539 -22 b 367 -347 557 -225 508 -347 b 229 -301 256 -347 218 -306 b 276 -253 251 -292 268 -276 b 215 -137 290 -203 265 -153 b 103 -200 168 -124 117 -151 b 126 -293 92 -233 106 -272 z "},"":{"ha":801,"x_min":0,"x_max":0,"o":"m 415 18 l 193 18 b 175 83 161 18 132 18 l 415 444 z m 724 -67 l 724 18 l 585 18 l 585 642 l 529 651 l 68 -44 l 68 -67 l 415 -67 l 415 -190 b 304 -347 415 -342 363 -347 l 304 -368 l 696 -368 l 696 -347 b 585 -183 638 -347 585 -344 l 585 -67 z "},"":{"ha":768,"x_min":0,"x_max":0,"o":"m 699 -32 b 150 249 690 131 540 322 l 190 486 l 625 486 l 674 642 l 193 642 l 100 101 b 572 -79 428 158 546 7 b 346 -347 611 -211 528 -347 b 232 -304 246 -347 215 -312 b 276 -251 254 -293 269 -276 b 214 -136 292 -201 263 -150 b 97 -200 164 -122 111 -151 b 124 -296 89 -233 101 -274 b 346 -368 149 -317 217 -368 b 699 -32 531 -368 710 -262 z "},"":{"ha":793,"x_min":0,"x_max":0,"o":"m 561 300 b 403 8 561 85 507 8 b 246 440 289 8 246 163 b 415 601 246 531 339 601 b 561 300 494 601 561 494 z m 732 325 b 472 654 732 474 669 654 b 246 499 386 654 286 611 b 471 969 247 883 350 972 b 556 943 540 967 564 944 b 503 911 535 942 515 929 b 522 794 475 874 485 821 b 639 815 561 768 613 776 b 644 903 657 842 658 879 b 461 990 632 925 588 990 b 63 436 242 990 63 760 b 403 -12 63 160 168 -12 b 732 325 596 -12 732 110 z "},"":{"ha":765,"x_min":0,"x_max":0,"o":"m 108 642 l 78 411 l 99 411 b 224 492 126 468 167 492 l 625 492 b 275 -356 347 132 282 -61 l 446 -356 b 646 492 446 -83 472 181 l 735 642 z "},"":{"ha":776,"x_min":0,"x_max":0,"o":"m 558 768 b 464 582 560 669 515 603 b 242 814 310 643 242 710 b 388 969 242 915 310 969 b 558 768 468 969 557 929 z m 406 -12 b 732 272 590 -12 732 65 b 486 569 732 396 619 503 b 665 781 597 596 665 699 b 388 990 665 913 554 990 b 103 736 233 990 103 907 b 288 471 103 639 153 551 b 61 217 172 438 61 336 b 406 -12 61 49 200 -12 z m 364 426 b 581 192 479 367 579 301 b 406 8 582 58 489 8 b 192 222 278 8 192 86 b 310 457 192 371 268 438 b 364 426 331 444 340 439 z "},"":{"ha":768,"x_min":0,"x_max":0,"o":"m 224 338 b 382 633 224 553 278 633 b 539 192 496 633 539 451 b 369 40 539 101 446 40 b 224 338 290 40 224 143 z m 53 311 b 313 -12 53 164 115 -12 b 539 132 399 -12 500 25 b 317 -347 538 -268 493 -351 b 224 -315 247 -346 213 -317 b 282 -281 246 -314 268 -300 b 261 -154 311 -240 301 -182 b 133 -176 219 -125 163 -135 b 128 -272 114 -206 113 -246 b 328 -368 142 -296 182 -368 b 722 194 592 -368 722 -153 b 382 654 722 471 617 654 b 53 311 189 654 53 547 z "},"":{"ha":789,"x_min":0,"x_max":0,"o":"m 400 8 l 400 390 l 469 346 b 400 8 615 242 626 13 z m 368 628 l 329 654 b 368 969 136 781 219 968 z m 551 507 l 400 607 l 400 968 b 694 690 601 956 675 789 l 706 690 l 706 924 b 400 990 706 924 600 985 l 400 1160 l 368 1160 l 368 990 b 94 883 163 989 94 883 b 249 488 -17 725 83 593 l 368 410 l 368 8 b 75 336 167 38 96 217 l 64 336 l 64 69 b 368 -12 64 69 157 -3 l 368 -182 l 400 -182 l 400 -12 b 701 101 594 -11 658 50 b 551 507 790 233 736 386 z "},"":{"ha":728,"x_min":0,"x_max":0,"o":"m 257 342 b 428 632 257 557 365 619 l 428 89 b 257 342 338 111 257 183 z m 658 178 b 453 85 631 128 538 78 l 453 633 b 549 597 526 633 561 601 b 508 556 532 590 515 576 b 551 456 492 517 511 471 b 653 500 592 439 638 461 b 639 581 665 528 656 561 b 453 654 621 603 569 654 l 453 824 l 428 824 l 428 654 b 104 321 218 642 104 479 b 428 -12 104 140 221 -11 l 428 -164 l 453 -164 l 453 -12 b 675 168 593 3 658 104 z "},"":{"ha":789,"x_min":0,"x_max":0,"o":"m 400 8 l 400 390 l 469 346 b 400 8 615 242 626 13 z m 368 628 l 329 654 b 368 969 136 781 219 968 z m 551 507 l 400 607 l 400 968 b 694 690 601 956 675 789 l 706 690 l 706 924 b 400 990 706 924 600 985 l 400 1160 l 368 1160 l 368 990 b 94 883 163 989 94 883 b 249 488 -17 725 83 593 l 368 410 l 368 8 b 75 336 167 38 96 217 l 64 336 l 64 69 b 368 -12 64 69 157 -3 l 368 -182 l 400 -182 l 400 -12 b 701 101 594 -11 658 50 b 551 507 790 233 736 386 z "},"":{"ha":783,"x_min":0,"x_max":0,"o":"m 547 318 b 400 8 547 57 503 8 b 251 318 294 8 251 57 b 400 633 251 582 294 633 b 547 318 503 633 547 582 z m 722 318 b 400 654 722 544 604 654 b 78 318 196 654 78 535 b 400 -12 78 96 196 -12 b 722 318 604 -12 722 93 z "},"":{"ha":682,"x_min":0,"x_max":0,"o":"m 283 129 b 161 21 283 25 217 21 l 161 0 l 540 0 l 540 21 b 431 129 492 21 431 22 l 431 654 l 421 654 l 171 585 l 172 565 b 283 506 251 585 283 576 z "},"":{"ha":706,"x_min":0,"x_max":0,"o":"m 583 213 b 468 138 554 157 515 138 l 256 133 b 568 511 358 242 596 310 b 211 624 542 694 272 663 b 115 519 138 576 119 538 b 133 449 108 496 114 468 b 232 451 161 422 206 424 b 228 549 257 479 257 522 b 178 565 214 561 194 567 b 217 606 171 564 169 583 b 414 499 293 642 390 597 b 243 153 436 410 406 308 l 100 0 l 544 0 l 604 213 z "},"":{"ha":749,"x_min":0,"x_max":0,"o":"m 126 -293 b 368 -368 175 -342 246 -368 b 690 -33 489 -368 703 -279 b 479 201 686 58 614 160 b 367 654 728 389 576 654 b 115 424 353 654 140 653 l 138 419 b 407 506 176 538 332 569 b 279 158 507 422 501 213 l 279 136 b 544 -87 489 115 539 -22 b 367 -347 557 -225 508 -347 b 229 -301 256 -347 218 -306 b 276 -253 251 -292 268 -276 b 215 -137 290 -203 265 -153 b 103 -200 168 -124 117 -151 b 126 -293 92 -233 106 -272 z "},"":{"ha":801,"x_min":0,"x_max":0,"o":"m 415 18 l 193 18 b 175 83 161 18 132 18 l 415 444 z m 724 -67 l 724 18 l 585 18 l 585 642 l 529 651 l 68 -44 l 68 -67 l 415 -67 l 415 -190 b 304 -347 415 -342 363 -347 l 304 -368 l 696 -368 l 696 -347 b 585 -183 638 -347 585 -344 l 585 -67 z "},"":{"ha":768,"x_min":0,"x_max":0,"o":"m 699 -32 b 150 249 690 131 540 322 l 190 486 l 625 486 l 674 642 l 193 642 l 100 101 b 572 -79 428 158 546 7 b 346 -347 611 -211 528 -347 b 232 -304 246 -347 215 -312 b 276 -251 254 -293 269 -276 b 214 -136 292 -201 263 -150 b 97 -200 164 -122 111 -151 b 124 -296 89 -233 101 -274 b 346 -368 149 -317 217 -368 b 699 -32 531 -368 710 -262 z "},"":{"ha":793,"x_min":0,"x_max":0,"o":"m 561 300 b 403 8 561 85 507 8 b 246 440 289 8 246 163 b 415 601 246 531 339 601 b 561 300 494 601 561 494 z m 732 325 b 472 654 732 474 669 654 b 246 499 386 654 286 611 b 471 969 247 883 350 972 b 556 943 540 967 564 944 b 503 911 535 942 515 929 b 522 794 475 874 485 821 b 639 815 561 768 613 776 b 644 903 657 842 658 879 b 461 990 632 925 588 990 b 63 436 242 990 63 760 b 403 -12 63 160 168 -12 b 732 325 596 -12 732 110 z "},"":{"ha":765,"x_min":0,"x_max":0,"o":"m 108 642 l 78 411 l 99 411 b 224 492 126 468 167 492 l 625 492 b 275 -356 347 132 282 -61 l 446 -356 b 646 492 446 -83 472 181 l 735 642 z "},"":{"ha":776,"x_min":0,"x_max":0,"o":"m 558 768 b 464 582 560 669 515 603 b 242 814 310 643 242 710 b 388 969 242 915 310 969 b 558 768 468 969 557 929 z m 406 -12 b 732 272 590 -12 732 65 b 486 569 732 396 619 503 b 665 781 597 596 665 699 b 388 990 665 913 554 990 b 103 736 233 990 103 907 b 288 471 103 639 153 551 b 61 217 172 438 61 336 b 406 -12 61 49 200 -12 z m 364 426 b 581 192 479 367 579 301 b 406 8 582 58 489 8 b 192 222 278 8 192 86 b 310 457 192 371 268 438 b 364 426 331 444 340 439 z "},"":{"ha":768,"x_min":0,"x_max":0,"o":"m 224 338 b 382 633 224 553 278 633 b 539 192 496 633 539 451 b 369 40 539 101 446 40 b 224 338 290 40 224 143 z m 53 311 b 313 -12 53 164 115 -12 b 539 132 399 -12 500 25 b 317 -347 538 -268 493 -351 b 224 -315 247 -346 213 -317 b 282 -281 246 -314 268 -300 b 261 -154 311 -240 301 -182 b 133 -176 219 -125 163 -135 b 128 -272 114 -206 113 -246 b 328 -368 142 -296 182 -368 b 722 194 592 -368 722 -153 b 382 654 722 471 617 654 b 53 311 189 654 53 547 z "},"":{"ha":728,"x_min":0,"x_max":0,"o":"m 257 342 b 428 632 257 557 365 619 l 428 89 b 257 342 338 111 257 183 z m 658 178 b 453 85 631 128 538 78 l 453 633 b 549 597 526 633 561 601 b 508 556 532 590 515 576 b 551 456 492 517 511 471 b 653 500 592 439 638 461 b 639 581 665 528 656 561 b 453 654 621 603 569 654 l 453 824 l 428 824 l 428 654 b 104 321 218 642 104 479 b 428 -12 104 140 221 -11 l 428 -164 l 453 -164 l 453 -12 b 675 168 593 3 658 104 z "},"ﬁ":{"ha":775,"x_min":0,"x_max":0,"o":"m 722 11 b 665 140 672 24 665 64 l 665 642 l 449 642 l 263 642 l 263 693 b 457 1014 263 1007 410 1014 b 550 961 540 1014 581 967 b 496 924 528 958 508 944 b 525 806 471 883 485 831 b 644 835 567 781 621 793 b 647 933 661 863 657 903 b 457 1035 628 989 551 1035 b 117 665 236 1035 117 942 l 117 642 l 25 642 l 28 621 l 117 621 l 117 138 b 61 11 117 67 114 25 l 61 0 l 325 0 l 325 11 b 263 138 276 22 263 61 l 263 621 l 449 621 b 518 518 501 621 518 567 l 518 140 b 463 11 518 69 515 26 l 463 0 l 722 0 l 722 11 z "},"ﬂ":{"ha":753,"x_min":0,"x_max":0,"o":"m 733 21 b 676 140 683 33 676 64 l 676 1036 l 489 994 b 342 1035 444 1022 396 1035 b 103 725 207 1035 103 938 l 103 642 l 11 642 l 14 621 l 103 621 l 103 138 b 47 21 103 67 100 35 l 47 0 l 313 0 l 313 21 b 250 138 263 32 250 61 l 250 621 l 394 621 l 399 642 l 250 642 l 250 683 b 457 981 250 1021 397 997 b 529 888 510 967 529 929 l 529 140 b 475 21 529 69 528 36 l 475 0 l 733 0 l 733 21 z "},"Ș":{"ha":814,"x_min":0,"x_max":0,"o":"m 356 -406 b 464 -303 418 -372 446 -332 b 483 -69 506 -239 543 -128 b 344 -69 446 -31 383 -31 b 346 -207 307 -108 308 -169 b 413 -236 365 -226 389 -233 b 343 -390 435 -239 429 -326 z m 701 101 b 551 508 790 235 736 386 l 329 654 b 369 969 135 781 219 969 b 685 690 596 969 665 796 l 706 690 l 706 924 b 369 990 706 924 589 990 b 94 883 163 990 94 883 b 249 488 -17 725 83 593 l 469 346 b 419 8 636 226 599 8 b 85 336 178 8 107 210 l 64 336 l 64 69 b 419 -12 64 69 172 -12 b 701 101 639 -12 701 101 z "},"ș":{"ha":604,"x_min":0,"x_max":0,"o":"m 250 -406 b 358 -303 313 -372 340 -332 b 378 -69 400 -239 438 -128 b 239 -69 340 -31 278 -31 b 240 -207 201 -108 203 -169 b 307 -236 260 -226 283 -233 b 238 -390 329 -239 324 -326 z m 497 60 b 400 351 565 157 525 274 l 260 439 b 275 633 139 515 164 633 b 482 449 426 633 468 514 l 503 449 l 503 611 b 275 654 503 611 435 654 b 88 579 135 654 88 579 b 189 299 21 482 54 385 l 329 214 b 313 8 435 144 435 8 b 86 229 140 8 101 156 l 65 229 l 65 47 b 313 -12 65 47 144 -12 b 497 60 447 -12 497 60 z "},"Ț":{"ha":939,"x_min":0,"x_max":0,"o":"m 400 -406 b 508 -303 463 -372 490 -332 b 528 -69 550 -239 588 -128 b 389 -69 490 -31 428 -31 b 390 -207 351 -108 353 -169 b 457 -236 410 -226 433 -233 b 388 -390 479 -239 474 -326 z m 26 978 l 26 715 l 47 715 b 328 957 56 953 307 957 l 382 957 l 382 151 b 272 21 382 58 331 21 l 272 0 l 661 0 l 661 21 b 551 151 603 21 551 58 l 551 957 l 606 957 b 888 715 615 957 879 953 l 908 715 l 908 978 z "},"ț":{"ha":465,"x_min":0,"x_max":0,"o":"m 194 -406 b 303 -303 257 -372 285 -332 b 322 -69 344 -239 382 -128 b 183 -69 285 -31 222 -31 b 185 -207 146 -108 147 -169 b 251 -236 204 -226 228 -233 b 182 -390 274 -239 268 -326 z m 432 125 b 349 71 421 100 389 71 b 244 204 281 71 244 110 l 244 621 l 404 621 l 410 642 l 244 642 l 244 857 l 97 833 l 97 642 l 24 642 l 28 621 l 97 621 l 97 200 b 265 -12 97 32 161 -12 b 450 114 353 -12 426 51 z "}}}
